<mxfile host="app.diagrams.net" modified="2023-11-29T15:19:33.932Z" agent="Mozilla/5.0 (X11; Linux x86_64) AppleWebKit/537.36 (KHTML, like Gecko) Chrome/119.0.0.0 Safari/537.36" etag="zmlqAvMNwpNwrijRGhlX" version="22.1.4" type="device">
  <diagram name="Page-1" id="g0_QhYohKCgAUAfTmOvD">
    <mxGraphModel dx="1687" dy="916" grid="1" gridSize="10" guides="1" tooltips="1" connect="1" arrows="1" fold="1" page="1" pageScale="1" pageWidth="850" pageHeight="1100" math="0" shadow="0">
      <root>
        <mxCell id="0" />
        <mxCell id="1" parent="0" />
        <mxCell id="2Xxd8htiTgo1Ge0YMUIe-24" value="Inizio" style="whiteSpace=wrap;strokeWidth=2;" vertex="1" parent="1">
          <mxGeometry x="117" y="20" width="52" height="32" as="geometry" />
        </mxCell>
        <mxCell id="2Xxd8htiTgo1Ge0YMUIe-25" value="Preparazione dei Pattern" style="whiteSpace=wrap;strokeWidth=2;" vertex="1" parent="1">
          <mxGeometry x="48" y="102" width="192" height="32" as="geometry" />
        </mxCell>
        <mxCell id="2Xxd8htiTgo1Ge0YMUIe-26" value="Creazione PhraseMatcher" style="whiteSpace=wrap;strokeWidth=2;" vertex="1" parent="1">
          <mxGeometry x="43" y="184" width="202" height="32" as="geometry" />
        </mxCell>
        <mxCell id="2Xxd8htiTgo1Ge0YMUIe-27" value="Matching in doc_requisiti" style="whiteSpace=wrap;strokeWidth=2;" vertex="1" parent="1">
          <mxGeometry x="48" y="266" width="191" height="33" as="geometry" />
        </mxCell>
        <mxCell id="2Xxd8htiTgo1Ge0YMUIe-28" value="Elaborazione dei Match" style="whiteSpace=wrap;strokeWidth=2;" vertex="1" parent="1">
          <mxGeometry x="53" y="349" width="182" height="32" as="geometry" />
        </mxCell>
        <mxCell id="2Xxd8htiTgo1Ge0YMUIe-29" value="Evidenziazione e Classificazione" style="whiteSpace=wrap;strokeWidth=2;" vertex="1" parent="1">
          <mxGeometry x="20" y="431" width="247" height="32" as="geometry" />
        </mxCell>
        <mxCell id="2Xxd8htiTgo1Ge0YMUIe-30" value="Organizzazione dei Risultati" style="whiteSpace=wrap;strokeWidth=2;" vertex="1" parent="1">
          <mxGeometry x="37" y="513" width="213" height="32" as="geometry" />
        </mxCell>
        <mxCell id="2Xxd8htiTgo1Ge0YMUIe-31" value="Fine" style="whiteSpace=wrap;strokeWidth=2;" vertex="1" parent="1">
          <mxGeometry x="121" y="595" width="46" height="32" as="geometry" />
        </mxCell>
        <mxCell id="2Xxd8htiTgo1Ge0YMUIe-32" value="" style="curved=1;startArrow=none;endArrow=block;exitX=0.5117938701923077;exitY=1;entryX=0.49798583984375;entryY=0;rounded=0;" edge="1" parent="1" source="2Xxd8htiTgo1Ge0YMUIe-24" target="2Xxd8htiTgo1Ge0YMUIe-25">
          <mxGeometry relative="1" as="geometry">
            <Array as="points" />
          </mxGeometry>
        </mxCell>
        <mxCell id="2Xxd8htiTgo1Ge0YMUIe-33" value="" style="curved=1;startArrow=none;endArrow=block;exitX=0.49798583984375;exitY=1;entryX=0.49808555074257427;entryY=0;rounded=0;" edge="1" parent="1" source="2Xxd8htiTgo1Ge0YMUIe-25" target="2Xxd8htiTgo1Ge0YMUIe-26">
          <mxGeometry relative="1" as="geometry">
            <Array as="points" />
          </mxGeometry>
        </mxCell>
        <mxCell id="2Xxd8htiTgo1Ge0YMUIe-34" value="" style="curved=1;startArrow=none;endArrow=block;exitX=0.49808555074257427;exitY=1;entryX=0.5005930955497382;entryY=0;rounded=0;" edge="1" parent="1" source="2Xxd8htiTgo1Ge0YMUIe-26" target="2Xxd8htiTgo1Ge0YMUIe-27">
          <mxGeometry relative="1" as="geometry">
            <Array as="points" />
          </mxGeometry>
        </mxCell>
        <mxCell id="2Xxd8htiTgo1Ge0YMUIe-35" value="" style="curved=1;startArrow=none;endArrow=block;exitX=0.5005930955497382;exitY=1;entryX=0.4978751717032967;entryY=0;rounded=0;" edge="1" parent="1" source="2Xxd8htiTgo1Ge0YMUIe-27" target="2Xxd8htiTgo1Ge0YMUIe-28">
          <mxGeometry relative="1" as="geometry">
            <Array as="points" />
          </mxGeometry>
        </mxCell>
        <mxCell id="2Xxd8htiTgo1Ge0YMUIe-36" value="" style="curved=1;startArrow=none;endArrow=block;exitX=0.4978751717032967;exitY=1;entryX=0.5004586285425101;entryY=0;rounded=0;" edge="1" parent="1" source="2Xxd8htiTgo1Ge0YMUIe-28" target="2Xxd8htiTgo1Ge0YMUIe-29">
          <mxGeometry relative="1" as="geometry">
            <Array as="points" />
          </mxGeometry>
        </mxCell>
        <mxCell id="2Xxd8htiTgo1Ge0YMUIe-37" value="" style="curved=1;startArrow=none;endArrow=block;exitX=0.5004586285425101;exitY=1;entryX=0.5005318368544601;entryY=0;rounded=0;" edge="1" parent="1" source="2Xxd8htiTgo1Ge0YMUIe-29" target="2Xxd8htiTgo1Ge0YMUIe-30">
          <mxGeometry relative="1" as="geometry">
            <Array as="points" />
          </mxGeometry>
        </mxCell>
        <mxCell id="2Xxd8htiTgo1Ge0YMUIe-38" value="" style="curved=1;startArrow=none;endArrow=block;exitX=0.5005318368544601;exitY=1;entryX=0.4915930706521739;entryY=0;rounded=0;" edge="1" parent="1" source="2Xxd8htiTgo1Ge0YMUIe-30" target="2Xxd8htiTgo1Ge0YMUIe-31">
          <mxGeometry relative="1" as="geometry">
            <Array as="points" />
          </mxGeometry>
        </mxCell>
        <UserObject label="" plantUmlData="{&#xa;  &quot;data&quot;: &quot;@startuml\nstart\n\n:Preparazione dei Pattern;\n:Creazione PhraseMatcher;\n:Matching in doc_requisiti;\n:Elaborazione dei Match;\n:Evidenziazione e Classificazione;\n:Organizzazione dei Risultati;\n\nstop\n@enduml\n&quot;,&#xa;  &quot;format&quot;: &quot;svg&quot;&#xa;}" id="2Xxd8htiTgo1Ge0YMUIe-39">
          <mxCell style="shape=image;noLabel=1;verticalAlign=top;aspect=fixed;imageAspect=0;image=data:image/svg+xml,PD94bWwgdmVyc2lvbj0iMS4wIiBlbmNvZGluZz0idXMtYXNjaWkiIHN0YW5kYWxvbmU9Im5vIj8+PHN2ZyB4bWxucz0iaHR0cDovL3d3dy53My5vcmcvMjAwMC9zdmciIHhtbG5zOnhsaW5rPSJodHRwOi8vd3d3LnczLm9yZy8xOTk5L3hsaW5rIiBjb250ZW50U3R5bGVUeXBlPSJ0ZXh0L2NzcyIgaGVpZ2h0PSI0MDBweCIgcHJlc2VydmVBc3BlY3RSYXRpbz0ibm9uZSIgc3R5bGU9IndpZHRoOjI1MXB4O2hlaWdodDo0MDBweDtiYWNrZ3JvdW5kOiNGRkZGRkY7IiB2ZXJzaW9uPSIxLjEiIHZpZXdCb3g9IjAgMCAyNTEgNDAwIiB3aWR0aD0iMjUxcHgiIHpvb21BbmRQYW49Im1hZ25pZnkiPjxkZWZzLz48Zz48ZWxsaXBzZSBjeD0iMTI1LjUiIGN5PSIyMCIgZmlsbD0iIzIyMjIyMiIgcng9IjEwIiByeT0iMTAiIHN0eWxlPSJzdHJva2U6IzIyMjIyMjtzdHJva2Utd2lkdGg6MS4wOyIvPjxyZWN0IGZpbGw9IiNGMUYxRjEiIGhlaWdodD0iMzIuODQzOCIgcng9IjEyLjUiIHJ5PSIxMi41IiBzdHlsZT0ic3Ryb2tlOiMxODE4MTg7c3Ryb2tlLXdpZHRoOjAuNTsiIHdpZHRoPSIxODEiIHg9IjM1IiB5PSI1MCIvPjx0ZXh0IGZpbGw9IiMwMDAwMDAiIGZvbnQtZmFtaWx5PSJzYW5zLXNlcmlmIiBmb250LXNpemU9IjEyIiBsZW5ndGhBZGp1c3Q9InNwYWNpbmciIHRleHRMZW5ndGg9IjE2MSIgeD0iNDUiIHk9IjcxLjM0MzgiPlByZXBhcmF6aW9uZSBkZWkgUGF0dGVybjwvdGV4dD48cmVjdCBmaWxsPSIjRjFGMUYxIiBoZWlnaHQ9IjMyLjg0MzgiIHJ4PSIxMi41IiByeT0iMTIuNSIgc3R5bGU9InN0cm9rZTojMTgxODE4O3N0cm9rZS13aWR0aDowLjU7IiB3aWR0aD0iMTc2IiB4PSIzNy41IiB5PSIxMDIuODQzOCIvPjx0ZXh0IGZpbGw9IiMwMDAwMDAiIGZvbnQtZmFtaWx5PSJzYW5zLXNlcmlmIiBmb250LXNpemU9IjEyIiBsZW5ndGhBZGp1c3Q9InNwYWNpbmciIHRleHRMZW5ndGg9IjE1NiIgeD0iNDcuNSIgeT0iMTI0LjE4NzUiPkNyZWF6aW9uZSBQaHJhc2VNYXRjaGVyPC90ZXh0PjxyZWN0IGZpbGw9IiNGMUYxRjEiIGhlaWdodD0iMzIuODQzOCIgcng9IjEyLjUiIHJ5PSIxMi41IiBzdHlsZT0ic3Ryb2tlOiMxODE4MTg7c3Ryb2tlLXdpZHRoOjAuNTsiIHdpZHRoPSIxODMiIHg9IjM0IiB5PSIxNTUuNjg3NSIvPjx0ZXh0IGZpbGw9IiMwMDAwMDAiIGZvbnQtZmFtaWx5PSJzYW5zLXNlcmlmIiBmb250LXNpemU9IjEyIiBsZW5ndGhBZGp1c3Q9InNwYWNpbmciIHRleHRMZW5ndGg9IjE2MyIgeD0iNDQiIHk9IjE3Ny4wMzEzIj5NYXRjaGluZyBpbiBkb2NfcmVxdWlzaXRpPC90ZXh0PjxyZWN0IGZpbGw9IiNGMUYxRjEiIGhlaWdodD0iMzIuODQzOCIgcng9IjEyLjUiIHJ5PSIxMi41IiBzdHlsZT0ic3Ryb2tlOiMxODE4MTg7c3Ryb2tlLXdpZHRoOjAuNTsiIHdpZHRoPSIxNjUiIHg9IjQzIiB5PSIyMDguNTMxMyIvPjx0ZXh0IGZpbGw9IiMwMDAwMDAiIGZvbnQtZmFtaWx5PSJzYW5zLXNlcmlmIiBmb250LXNpemU9IjEyIiBsZW5ndGhBZGp1c3Q9InNwYWNpbmciIHRleHRMZW5ndGg9IjE0NSIgeD0iNTMiIHk9IjIyOS44NzUiPkVsYWJvcmF6aW9uZSBkZWkgTWF0Y2g8L3RleHQ+PHJlY3QgZmlsbD0iI0YxRjFGMSIgaGVpZ2h0PSIzMi44NDM4IiByeD0iMTIuNSIgcnk9IjEyLjUiIHN0eWxlPSJzdHJva2U6IzE4MTgxODtzdHJva2Utd2lkdGg6MC41OyIgd2lkdGg9IjIyOSIgeD0iMTEiIHk9IjI2MS4zNzUiLz48dGV4dCBmaWxsPSIjMDAwMDAwIiBmb250LWZhbWlseT0ic2Fucy1zZXJpZiIgZm9udC1zaXplPSIxMiIgbGVuZ3RoQWRqdXN0PSJzcGFjaW5nIiB0ZXh0TGVuZ3RoPSIyMDkiIHg9IjIxIiB5PSIyODIuNzE4OCI+RXZpZGVuemlhemlvbmUgZSBDbGFzc2lmaWNhemlvbmU8L3RleHQ+PHJlY3QgZmlsbD0iI0YxRjFGMSIgaGVpZ2h0PSIzMi44NDM4IiByeD0iMTIuNSIgcnk9IjEyLjUiIHN0eWxlPSJzdHJva2U6IzE4MTgxODtzdHJva2Utd2lkdGg6MC41OyIgd2lkdGg9IjIwMyIgeD0iMjQiIHk9IjMxNC4yMTg4Ii8+PHRleHQgZmlsbD0iIzAwMDAwMCIgZm9udC1mYW1pbHk9InNhbnMtc2VyaWYiIGZvbnQtc2l6ZT0iMTIiIGxlbmd0aEFkanVzdD0ic3BhY2luZyIgdGV4dExlbmd0aD0iMTgzIiB4PSIzNCIgeT0iMzM1LjU2MjUiPk9yZ2FuaXp6YXppb25lIGRlaSBSaXN1bHRhdGk8L3RleHQ+PGVsbGlwc2UgY3g9IjEyNS41IiBjeT0iMzc4LjA2MjUiIGZpbGw9Im5vbmUiIHJ4PSIxMSIgcnk9IjExIiBzdHlsZT0ic3Ryb2tlOiMyMjIyMjI7c3Ryb2tlLXdpZHRoOjEuMDsiLz48ZWxsaXBzZSBjeD0iMTI1LjUiIGN5PSIzNzguMDYyNSIgZmlsbD0iIzIyMjIyMiIgcng9IjYiIHJ5PSI2IiBzdHlsZT0ic3Ryb2tlOiMxMTExMTE7c3Ryb2tlLXdpZHRoOjEuMDsiLz48bGluZSBzdHlsZT0ic3Ryb2tlOiMxODE4MTg7c3Ryb2tlLXdpZHRoOjEuMDsiIHgxPSIxMjUuNSIgeDI9IjEyNS41IiB5MT0iMzAiIHkyPSI1MCIvPjxwb2x5Z29uIGZpbGw9IiMxODE4MTgiIHBvaW50cz0iMTIxLjUsNDAsMTI1LjUsNTAsMTI5LjUsNDAsMTI1LjUsNDQiIHN0eWxlPSJzdHJva2U6IzE4MTgxODtzdHJva2Utd2lkdGg6MS4wOyIvPjxsaW5lIHN0eWxlPSJzdHJva2U6IzE4MTgxODtzdHJva2Utd2lkdGg6MS4wOyIgeDE9IjEyNS41IiB4Mj0iMTI1LjUiIHkxPSI4Mi44NDM4IiB5Mj0iMTAyLjg0MzgiLz48cG9seWdvbiBmaWxsPSIjMTgxODE4IiBwb2ludHM9IjEyMS41LDkyLjg0MzgsMTI1LjUsMTAyLjg0MzgsMTI5LjUsOTIuODQzOCwxMjUuNSw5Ni44NDM4IiBzdHlsZT0ic3Ryb2tlOiMxODE4MTg7c3Ryb2tlLXdpZHRoOjEuMDsiLz48bGluZSBzdHlsZT0ic3Ryb2tlOiMxODE4MTg7c3Ryb2tlLXdpZHRoOjEuMDsiIHgxPSIxMjUuNSIgeDI9IjEyNS41IiB5MT0iMTM1LjY4NzUiIHkyPSIxNTUuNjg3NSIvPjxwb2x5Z29uIGZpbGw9IiMxODE4MTgiIHBvaW50cz0iMTIxLjUsMTQ1LjY4NzUsMTI1LjUsMTU1LjY4NzUsMTI5LjUsMTQ1LjY4NzUsMTI1LjUsMTQ5LjY4NzUiIHN0eWxlPSJzdHJva2U6IzE4MTgxODtzdHJva2Utd2lkdGg6MS4wOyIvPjxsaW5lIHN0eWxlPSJzdHJva2U6IzE4MTgxODtzdHJva2Utd2lkdGg6MS4wOyIgeDE9IjEyNS41IiB4Mj0iMTI1LjUiIHkxPSIxODguNTMxMyIgeTI9IjIwOC41MzEzIi8+PHBvbHlnb24gZmlsbD0iIzE4MTgxOCIgcG9pbnRzPSIxMjEuNSwxOTguNTMxMywxMjUuNSwyMDguNTMxMywxMjkuNSwxOTguNTMxMywxMjUuNSwyMDIuNTMxMyIgc3R5bGU9InN0cm9rZTojMTgxODE4O3N0cm9rZS13aWR0aDoxLjA7Ii8+PGxpbmUgc3R5bGU9InN0cm9rZTojMTgxODE4O3N0cm9rZS13aWR0aDoxLjA7IiB4MT0iMTI1LjUiIHgyPSIxMjUuNSIgeTE9IjI0MS4zNzUiIHkyPSIyNjEuMzc1Ii8+PHBvbHlnb24gZmlsbD0iIzE4MTgxOCIgcG9pbnRzPSIxMjEuNSwyNTEuMzc1LDEyNS41LDI2MS4zNzUsMTI5LjUsMjUxLjM3NSwxMjUuNSwyNTUuMzc1IiBzdHlsZT0ic3Ryb2tlOiMxODE4MTg7c3Ryb2tlLXdpZHRoOjEuMDsiLz48bGluZSBzdHlsZT0ic3Ryb2tlOiMxODE4MTg7c3Ryb2tlLXdpZHRoOjEuMDsiIHgxPSIxMjUuNSIgeDI9IjEyNS41IiB5MT0iMjk0LjIxODgiIHkyPSIzMTQuMjE4OCIvPjxwb2x5Z29uIGZpbGw9IiMxODE4MTgiIHBvaW50cz0iMTIxLjUsMzA0LjIxODgsMTI1LjUsMzE0LjIxODgsMTI5LjUsMzA0LjIxODgsMTI1LjUsMzA4LjIxODgiIHN0eWxlPSJzdHJva2U6IzE4MTgxODtzdHJva2Utd2lkdGg6MS4wOyIvPjxsaW5lIHN0eWxlPSJzdHJva2U6IzE4MTgxODtzdHJva2Utd2lkdGg6MS4wOyIgeDE9IjEyNS41IiB4Mj0iMTI1LjUiIHkxPSIzNDcuMDYyNSIgeTI9IjM2Ny4wNjI1Ii8+PHBvbHlnb24gZmlsbD0iIzE4MTgxOCIgcG9pbnRzPSIxMjEuNSwzNTcuMDYyNSwxMjUuNSwzNjcuMDYyNSwxMjkuNSwzNTcuMDYyNSwxMjUuNSwzNjEuMDYyNSIgc3R5bGU9InN0cm9rZTojMTgxODE4O3N0cm9rZS13aWR0aDoxLjA7Ii8+PCEtLVNSQz1bSk9tbjNpOG00MEh4bHlCbDI2TDRZUjN1MDNoaThyZDlpaUZUWFNBbG5tYWZxZ3JzUGJVRG45bVJXbDEyR1dzcmk0eUM3eVlDZkxwU0MwZVZWUFk1YjZ6YVNNUmZQNHllYXFWbmdTUWR5NlU1bWozUERURWhkV3p0VUdEVjkydUQxczhfUGJCNTZfN1ZURUtrNG5NcVRiZV9lNmlzc2d3VE1ici1dLS0+PC9nPjwvc3ZnPg==;" vertex="1" parent="1">
            <mxGeometry x="620" y="70" width="251" height="400" as="geometry" />
          </mxCell>
        </UserObject>
        <mxCell id="2Xxd8htiTgo1Ge0YMUIe-40" value="Inizio" style="whiteSpace=wrap;strokeWidth=2;" vertex="1" parent="1">
          <mxGeometry x="392" y="20" width="52" height="32" as="geometry" />
        </mxCell>
        <mxCell id="2Xxd8htiTgo1Ge0YMUIe-41" value="Preparazione dei Pattern Lessicali" style="whiteSpace=wrap;strokeWidth=2;" vertex="1" parent="1">
          <mxGeometry x="289" y="102" width="258" height="32" as="geometry" />
        </mxCell>
        <mxCell id="2Xxd8htiTgo1Ge0YMUIe-42" value="Esecuzione del Matching" style="whiteSpace=wrap;strokeWidth=2;" vertex="1" parent="1">
          <mxGeometry x="322" y="184" width="193" height="32" as="geometry" />
        </mxCell>
        <mxCell id="2Xxd8htiTgo1Ge0YMUIe-43" value="Iterazione sui Match Trovati" style="whiteSpace=wrap;strokeWidth=2;" vertex="1" parent="1">
          <mxGeometry x="313" y="266" width="211" height="32" as="geometry" />
        </mxCell>
        <mxCell id="2Xxd8htiTgo1Ge0YMUIe-44" value="Determinazione della Linea e del Contesto" style="whiteSpace=wrap;strokeWidth=2;" vertex="1" parent="1">
          <mxGeometry x="260" y="348" width="317" height="32" as="geometry" />
        </mxCell>
        <mxCell id="2Xxd8htiTgo1Ge0YMUIe-45" value="Evidenziazione e Classificazione" style="whiteSpace=wrap;strokeWidth=2;" vertex="1" parent="1">
          <mxGeometry x="295" y="430" width="247" height="32" as="geometry" />
        </mxCell>
        <mxCell id="2Xxd8htiTgo1Ge0YMUIe-46" value="Aggregazione dei Risultati" style="whiteSpace=wrap;strokeWidth=2;" vertex="1" parent="1">
          <mxGeometry x="318" y="512" width="201" height="32" as="geometry" />
        </mxCell>
        <mxCell id="2Xxd8htiTgo1Ge0YMUIe-47" value="Fine" style="whiteSpace=wrap;strokeWidth=2;" vertex="1" parent="1">
          <mxGeometry x="395" y="594" width="46" height="32" as="geometry" />
        </mxCell>
        <mxCell id="2Xxd8htiTgo1Ge0YMUIe-48" value="" style="curved=1;startArrow=none;endArrow=block;exitX=0.5060096153846154;exitY=1;entryX=0.5012112403100775;entryY=0;rounded=0;" edge="1" parent="1" source="2Xxd8htiTgo1Ge0YMUIe-40" target="2Xxd8htiTgo1Ge0YMUIe-41">
          <mxGeometry relative="1" as="geometry">
            <Array as="points" />
          </mxGeometry>
        </mxCell>
        <mxCell id="2Xxd8htiTgo1Ge0YMUIe-49" value="" style="curved=1;startArrow=none;endArrow=block;exitX=0.5012112403100775;exitY=1;entryX=0.4990284974093264;entryY=0;rounded=0;" edge="1" parent="1" source="2Xxd8htiTgo1Ge0YMUIe-41" target="2Xxd8htiTgo1Ge0YMUIe-42">
          <mxGeometry relative="1" as="geometry">
            <Array as="points" />
          </mxGeometry>
        </mxCell>
        <mxCell id="2Xxd8htiTgo1Ge0YMUIe-50" value="" style="curved=1;startArrow=none;endArrow=block;exitX=0.4990284974093264;exitY=1;entryX=0.49911137440758296;entryY=0;rounded=0;" edge="1" parent="1" source="2Xxd8htiTgo1Ge0YMUIe-42" target="2Xxd8htiTgo1Ge0YMUIe-43">
          <mxGeometry relative="1" as="geometry">
            <Array as="points" />
          </mxGeometry>
        </mxCell>
        <mxCell id="2Xxd8htiTgo1Ge0YMUIe-51" value="" style="curved=1;startArrow=none;endArrow=block;exitX=0.49911137440758296;exitY=1;entryX=0.49940851735015773;entryY=0;rounded=0;" edge="1" parent="1" source="2Xxd8htiTgo1Ge0YMUIe-43" target="2Xxd8htiTgo1Ge0YMUIe-44">
          <mxGeometry relative="1" as="geometry">
            <Array as="points" />
          </mxGeometry>
        </mxCell>
        <mxCell id="2Xxd8htiTgo1Ge0YMUIe-52" value="" style="curved=1;startArrow=none;endArrow=block;exitX=0.49940851735015773;exitY=1;entryX=0.4992408906882591;entryY=0;rounded=0;" edge="1" parent="1" source="2Xxd8htiTgo1Ge0YMUIe-44" target="2Xxd8htiTgo1Ge0YMUIe-45">
          <mxGeometry relative="1" as="geometry">
            <Array as="points" />
          </mxGeometry>
        </mxCell>
        <mxCell id="2Xxd8htiTgo1Ge0YMUIe-53" value="" style="curved=1;startArrow=none;endArrow=block;exitX=0.4992408906882591;exitY=1;entryX=0.49906716417910446;entryY=0;rounded=0;" edge="1" parent="1" source="2Xxd8htiTgo1Ge0YMUIe-45" target="2Xxd8htiTgo1Ge0YMUIe-46">
          <mxGeometry relative="1" as="geometry">
            <Array as="points" />
          </mxGeometry>
        </mxCell>
        <mxCell id="2Xxd8htiTgo1Ge0YMUIe-54" value="" style="curved=1;startArrow=none;endArrow=block;exitX=0.49906716417910446;exitY=1;entryX=0.5067934782608695;entryY=0;rounded=0;" edge="1" parent="1" source="2Xxd8htiTgo1Ge0YMUIe-46" target="2Xxd8htiTgo1Ge0YMUIe-47">
          <mxGeometry relative="1" as="geometry">
            <Array as="points" />
          </mxGeometry>
        </mxCell>
        <UserObject label="" plantUmlData="{&quot;data&quot;:&quot;@startuml\nstart\n\n:Preparazione pattern lessicali,\\nconfigurazione PhraseMatcher;\n\n:Esecuzione matching;\n\n:Iterazione sui match trovati;\n\nif (Trovato match) then (sì)\n  :Identificazione linea e contesto;\n  :Classificazione usando\\nmemoria delle etichette;\n  :Aggregazione risultati\\nin un dizionario;\nelse (no)\n  :Nessun match trovato;\nendif\n\n:Restituzione dizionario dei risultati;\nstop\n@enduml\n&quot;,&quot;format&quot;:&quot;svg&quot;}" id="2Xxd8htiTgo1Ge0YMUIe-55">
          <mxCell style="shape=image;noLabel=1;verticalAlign=top;aspect=fixed;imageAspect=0;image=data:image/svg+xml,PD94bWwgdmVyc2lvbj0iMS4wIiBlbmNvZGluZz0idXMtYXNjaWkiIHN0YW5kYWxvbmU9Im5vIj8+PHN2ZyB4bWxucz0iaHR0cDovL3d3dy53My5vcmcvMjAwMC9zdmciIHhtbG5zOnhsaW5rPSJodHRwOi8vd3d3LnczLm9yZy8xOTk5L3hsaW5rIiBjb250ZW50U3R5bGVUeXBlPSJ0ZXh0L2NzcyIgaGVpZ2h0PSI1NTVweCIgcHJlc2VydmVBc3BlY3RSYXRpbz0ibm9uZSIgc3R5bGU9IndpZHRoOjQyM3B4O2hlaWdodDo1NTVweDtiYWNrZ3JvdW5kOiNGRkZGRkY7IiB2ZXJzaW9uPSIxLjEiIHZpZXdCb3g9IjAgMCA0MjMgNTU1IiB3aWR0aD0iNDIzcHgiIHpvb21BbmRQYW49Im1hZ25pZnkiPjxkZWZzLz48Zz48ZWxsaXBzZSBjeD0iMjMwLjI1IiBjeT0iMjAiIGZpbGw9IiMyMjIyMjIiIHJ4PSIxMCIgcnk9IjEwIiBzdHlsZT0ic3Ryb2tlOiMyMjIyMjI7c3Ryb2tlLXdpZHRoOjEuMDsiLz48cmVjdCBmaWxsPSIjRjFGMUYxIiBoZWlnaHQ9IjQ1LjY4NzUiIHJ4PSIxMi41IiByeT0iMTIuNSIgc3R5bGU9InN0cm9rZTojMTgxODE4O3N0cm9rZS13aWR0aDowLjU7IiB3aWR0aD0iMjI1IiB4PSIxMTcuNzUiIHk9IjUwIi8+PHRleHQgZmlsbD0iIzAwMDAwMCIgZm9udC1mYW1pbHk9InNhbnMtc2VyaWYiIGZvbnQtc2l6ZT0iMTIiIGxlbmd0aEFkanVzdD0ic3BhY2luZyIgdGV4dExlbmd0aD0iMjA1IiB4PSIxMjcuNzUiIHk9IjcxLjM0MzgiPlByZXBhcmF6aW9uZSBwYXR0ZXJuIGxlc3NpY2FsaSw8L3RleHQ+PHRleHQgZmlsbD0iIzAwMDAwMCIgZm9udC1mYW1pbHk9InNhbnMtc2VyaWYiIGZvbnQtc2l6ZT0iMTIiIGxlbmd0aEFkanVzdD0ic3BhY2luZyIgdGV4dExlbmd0aD0iMTg4IiB4PSIxMjcuNzUiIHk9Ijg0LjE4NzUiPmNvbmZpZ3VyYXppb25lIFBocmFzZU1hdGNoZXI8L3RleHQ+PHJlY3QgZmlsbD0iI0YxRjFGMSIgaGVpZ2h0PSIzMi44NDM4IiByeD0iMTIuNSIgcnk9IjEyLjUiIHN0eWxlPSJzdHJva2U6IzE4MTgxODtzdHJva2Utd2lkdGg6MC41OyIgd2lkdGg9IjE0NCIgeD0iMTU4LjI1IiB5PSIxMTUuNjg3NSIvPjx0ZXh0IGZpbGw9IiMwMDAwMDAiIGZvbnQtZmFtaWx5PSJzYW5zLXNlcmlmIiBmb250LXNpemU9IjEyIiBsZW5ndGhBZGp1c3Q9InNwYWNpbmciIHRleHRMZW5ndGg9IjEyNCIgeD0iMTY4LjI1IiB5PSIxMzcuMDMxMyI+RXNlY3V6aW9uZSBtYXRjaGluZzwvdGV4dD48cmVjdCBmaWxsPSIjRjFGMUYxIiBoZWlnaHQ9IjMyLjg0MzgiIHJ4PSIxMi41IiByeT0iMTIuNSIgc3R5bGU9InN0cm9rZTojMTgxODE4O3N0cm9rZS13aWR0aDowLjU7IiB3aWR0aD0iMjAyIiB4PSIxMjkuMjUiIHk9IjE2OC41MzEzIi8+PHRleHQgZmlsbD0iIzAwMDAwMCIgZm9udC1mYW1pbHk9InNhbnMtc2VyaWYiIGZvbnQtc2l6ZT0iMTIiIGxlbmd0aEFkanVzdD0ic3BhY2luZyIgdGV4dExlbmd0aD0iMTgyIiB4PSIxMzkuMjUiIHk9IjE4OS44NzUiPkl0ZXJhemlvbmUgc3VpIG1hdGNoIHRyb3ZhdGk8L3RleHQ+PHBvbHlnb24gZmlsbD0iI0YxRjFGMSIgcG9pbnRzPSIxOTEuMjUsMjIxLjM3NSwyNjkuMjUsMjIxLjM3NSwyODEuMjUsMjMzLjM3NSwyNjkuMjUsMjQ1LjM3NSwxOTEuMjUsMjQ1LjM3NSwxNzkuMjUsMjMzLjM3NSwxOTEuMjUsMjIxLjM3NSIgc3R5bGU9InN0cm9rZTojMTgxODE4O3N0cm9rZS13aWR0aDowLjU7Ii8+PHRleHQgZmlsbD0iIzAwMDAwMCIgZm9udC1mYW1pbHk9InNhbnMtc2VyaWYiIGZvbnQtc2l6ZT0iMTEiIGxlbmd0aEFkanVzdD0ic3BhY2luZyIgdGV4dExlbmd0aD0iNzgiIHg9IjE5MS4yNSIgeT0iMjM3Ljg4NjciPlRyb3ZhdG8gbWF0Y2g8L3RleHQ+PHRleHQgZmlsbD0iIzAwMDAwMCIgZm9udC1mYW1pbHk9InNhbnMtc2VyaWYiIGZvbnQtc2l6ZT0iMTEiIGxlbmd0aEFkanVzdD0ic3BhY2luZyIgdGV4dExlbmd0aD0iMTIiIHg9IjE2Ny4yNSIgeT0iMjMyIj5zJiMyMzY7PC90ZXh0Pjx0ZXh0IGZpbGw9IiMwMDAwMDAiIGZvbnQtZmFtaWx5PSJzYW5zLXNlcmlmIiBmb250LXNpemU9IjExIiBsZW5ndGhBZGp1c3Q9InNwYWNpbmciIHRleHRMZW5ndGg9IjEyIiB4PSIyODEuMjUiIHk9IjIzMiI+bm88L3RleHQ+PHJlY3QgZmlsbD0iI0YxRjFGMSIgaGVpZ2h0PSIzMi44NDM4IiByeD0iMTIuNSIgcnk9IjEyLjUiIHN0eWxlPSJzdHJva2U6IzE4MTgxODtzdHJva2Utd2lkdGg6MC41OyIgd2lkdGg9IjIyOCIgeD0iMTEiIHk9IjI1NS4zNzUiLz48dGV4dCBmaWxsPSIjMDAwMDAwIiBmb250LWZhbWlseT0ic2Fucy1zZXJpZiIgZm9udC1zaXplPSIxMiIgbGVuZ3RoQWRqdXN0PSJzcGFjaW5nIiB0ZXh0TGVuZ3RoPSIyMDgiIHg9IjIxIiB5PSIyNzYuNzE4OCI+SWRlbnRpZmljYXppb25lIGxpbmVhIGUgY29udGVzdG88L3RleHQ+PHJlY3QgZmlsbD0iI0YxRjFGMSIgaGVpZ2h0PSI0NS42ODc1IiByeD0iMTIuNSIgcnk9IjEyLjUiIHN0eWxlPSJzdHJva2U6IzE4MTgxODtzdHJva2Utd2lkdGg6MC41OyIgd2lkdGg9IjE2OSIgeD0iNDAuNSIgeT0iMzA4LjIxODgiLz48dGV4dCBmaWxsPSIjMDAwMDAwIiBmb250LWZhbWlseT0ic2Fucy1zZXJpZiIgZm9udC1zaXplPSIxMiIgbGVuZ3RoQWRqdXN0PSJzcGFjaW5nIiB0ZXh0TGVuZ3RoPSIxNDYiIHg9IjUwLjUiIHk9IjMyOS41NjI1Ij5DbGFzc2lmaWNhemlvbmUgdXNhbmRvPC90ZXh0Pjx0ZXh0IGZpbGw9IiMwMDAwMDAiIGZvbnQtZmFtaWx5PSJzYW5zLXNlcmlmIiBmb250LXNpemU9IjEyIiBsZW5ndGhBZGp1c3Q9InNwYWNpbmciIHRleHRMZW5ndGg9IjE0OSIgeD0iNTAuNSIgeT0iMzQyLjQwNjMiPm1lbW9yaWEgZGVsbGUgZXRpY2hldHRlPC90ZXh0PjxyZWN0IGZpbGw9IiNGMUYxRjEiIGhlaWdodD0iNDUuNjg3NSIgcng9IjEyLjUiIHJ5PSIxMi41IiBzdHlsZT0ic3Ryb2tlOiMxODE4MTg7c3Ryb2tlLXdpZHRoOjAuNTsiIHdpZHRoPSIxNjYiIHg9IjQyIiB5PSIzNzMuOTA2MyIvPjx0ZXh0IGZpbGw9IiMwMDAwMDAiIGZvbnQtZmFtaWx5PSJzYW5zLXNlcmlmIiBmb250LXNpemU9IjEyIiBsZW5ndGhBZGp1c3Q9InNwYWNpbmciIHRleHRMZW5ndGg9IjE0NiIgeD0iNTIiIHk9IjM5NS4yNSI+QWdncmVnYXppb25lIHJpc3VsdGF0aTwvdGV4dD48dGV4dCBmaWxsPSIjMDAwMDAwIiBmb250LWZhbWlseT0ic2Fucy1zZXJpZiIgZm9udC1zaXplPSIxMiIgbGVuZ3RoQWRqdXN0PSJzcGFjaW5nIiB0ZXh0TGVuZ3RoPSIxMDUiIHg9IjUyIiB5PSI0MDguMDkzOCI+aW4gdW4gZGl6aW9uYXJpbzwvdGV4dD48cmVjdCBmaWxsPSIjRjFGMUYxIiBoZWlnaHQ9IjMyLjg0MzgiIHJ4PSIxMi41IiByeT0iMTIuNSIgc3R5bGU9InN0cm9rZTojMTgxODE4O3N0cm9rZS13aWR0aDowLjU7IiB3aWR0aD0iMTUzIiB4PSIyNTkiIHk9IjI1NS4zNzUiLz48dGV4dCBmaWxsPSIjMDAwMDAwIiBmb250LWZhbWlseT0ic2Fucy1zZXJpZiIgZm9udC1zaXplPSIxMiIgbGVuZ3RoQWRqdXN0PSJzcGFjaW5nIiB0ZXh0TGVuZ3RoPSIxMzMiIHg9IjI2OSIgeT0iMjc2LjcxODgiPk5lc3N1biBtYXRjaCB0cm92YXRvPC90ZXh0Pjxwb2x5Z29uIGZpbGw9IiNGMUYxRjEiIHBvaW50cz0iMjMwLjI1LDQyNS41OTM4LDI0Mi4yNSw0MzcuNTkzOCwyMzAuMjUsNDQ5LjU5MzgsMjE4LjI1LDQzNy41OTM4LDIzMC4yNSw0MjUuNTkzOCIgc3R5bGU9InN0cm9rZTojMTgxODE4O3N0cm9rZS13aWR0aDowLjU7Ii8+PHJlY3QgZmlsbD0iI0YxRjFGMSIgaGVpZ2h0PSIzMi44NDM4IiByeD0iMTIuNSIgcnk9IjEyLjUiIHN0eWxlPSJzdHJva2U6IzE4MTgxODtzdHJva2Utd2lkdGg6MC41OyIgd2lkdGg9IjI2MSIgeD0iOTkuNzUiIHk9IjQ2OS41OTM4Ii8+PHRleHQgZmlsbD0iIzAwMDAwMCIgZm9udC1mYW1pbHk9InNhbnMtc2VyaWYiIGZvbnQtc2l6ZT0iMTIiIGxlbmd0aEFkanVzdD0ic3BhY2luZyIgdGV4dExlbmd0aD0iMjQxIiB4PSIxMDkuNzUiIHk9IjQ5MC45Mzc1Ij5SZXN0aXR1emlvbmUgZGl6aW9uYXJpbyBkZWkgcmlzdWx0YXRpPC90ZXh0PjxlbGxpcHNlIGN4PSIyMzAuMjUiIGN5PSI1MzMuNDM3NSIgZmlsbD0ibm9uZSIgcng9IjExIiByeT0iMTEiIHN0eWxlPSJzdHJva2U6IzIyMjIyMjtzdHJva2Utd2lkdGg6MS4wOyIvPjxlbGxpcHNlIGN4PSIyMzAuMjUiIGN5PSI1MzMuNDM3NSIgZmlsbD0iIzIyMjIyMiIgcng9IjYiIHJ5PSI2IiBzdHlsZT0ic3Ryb2tlOiMxMTExMTE7c3Ryb2tlLXdpZHRoOjEuMDsiLz48bGluZSBzdHlsZT0ic3Ryb2tlOiMxODE4MTg7c3Ryb2tlLXdpZHRoOjEuMDsiIHgxPSIyMzAuMjUiIHgyPSIyMzAuMjUiIHkxPSIzMCIgeTI9IjUwIi8+PHBvbHlnb24gZmlsbD0iIzE4MTgxOCIgcG9pbnRzPSIyMjYuMjUsNDAsMjMwLjI1LDUwLDIzNC4yNSw0MCwyMzAuMjUsNDQiIHN0eWxlPSJzdHJva2U6IzE4MTgxODtzdHJva2Utd2lkdGg6MS4wOyIvPjxsaW5lIHN0eWxlPSJzdHJva2U6IzE4MTgxODtzdHJva2Utd2lkdGg6MS4wOyIgeDE9IjIzMC4yNSIgeDI9IjIzMC4yNSIgeTE9Ijk1LjY4NzUiIHkyPSIxMTUuNjg3NSIvPjxwb2x5Z29uIGZpbGw9IiMxODE4MTgiIHBvaW50cz0iMjI2LjI1LDEwNS42ODc1LDIzMC4yNSwxMTUuNjg3NSwyMzQuMjUsMTA1LjY4NzUsMjMwLjI1LDEwOS42ODc1IiBzdHlsZT0ic3Ryb2tlOiMxODE4MTg7c3Ryb2tlLXdpZHRoOjEuMDsiLz48bGluZSBzdHlsZT0ic3Ryb2tlOiMxODE4MTg7c3Ryb2tlLXdpZHRoOjEuMDsiIHgxPSIyMzAuMjUiIHgyPSIyMzAuMjUiIHkxPSIxNDguNTMxMyIgeTI9IjE2OC41MzEzIi8+PHBvbHlnb24gZmlsbD0iIzE4MTgxOCIgcG9pbnRzPSIyMjYuMjUsMTU4LjUzMTMsMjMwLjI1LDE2OC41MzEzLDIzNC4yNSwxNTguNTMxMywyMzAuMjUsMTYyLjUzMTMiIHN0eWxlPSJzdHJva2U6IzE4MTgxODtzdHJva2Utd2lkdGg6MS4wOyIvPjxsaW5lIHN0eWxlPSJzdHJva2U6IzE4MTgxODtzdHJva2Utd2lkdGg6MS4wOyIgeDE9IjEyNSIgeDI9IjEyNSIgeTE9IjI4OC4yMTg4IiB5Mj0iMzA4LjIxODgiLz48cG9seWdvbiBmaWxsPSIjMTgxODE4IiBwb2ludHM9IjEyMSwyOTguMjE4OCwxMjUsMzA4LjIxODgsMTI5LDI5OC4yMTg4LDEyNSwzMDIuMjE4OCIgc3R5bGU9InN0cm9rZTojMTgxODE4O3N0cm9rZS13aWR0aDoxLjA7Ii8+PGxpbmUgc3R5bGU9InN0cm9rZTojMTgxODE4O3N0cm9rZS13aWR0aDoxLjA7IiB4MT0iMTI1IiB4Mj0iMTI1IiB5MT0iMzUzLjkwNjMiIHkyPSIzNzMuOTA2MyIvPjxwb2x5Z29uIGZpbGw9IiMxODE4MTgiIHBvaW50cz0iMTIxLDM2My45MDYzLDEyNSwzNzMuOTA2MywxMjksMzYzLjkwNjMsMTI1LDM2Ny45MDYzIiBzdHlsZT0ic3Ryb2tlOiMxODE4MTg7c3Ryb2tlLXdpZHRoOjEuMDsiLz48bGluZSBzdHlsZT0ic3Ryb2tlOiMxODE4MTg7c3Ryb2tlLXdpZHRoOjEuMDsiIHgxPSIxNzkuMjUiIHgyPSIxMjUiIHkxPSIyMzMuMzc1IiB5Mj0iMjMzLjM3NSIvPjxsaW5lIHN0eWxlPSJzdHJva2U6IzE4MTgxODtzdHJva2Utd2lkdGg6MS4wOyIgeDE9IjEyNSIgeDI9IjEyNSIgeTE9IjIzMy4zNzUiIHkyPSIyNTUuMzc1Ii8+PHBvbHlnb24gZmlsbD0iIzE4MTgxOCIgcG9pbnRzPSIxMjEsMjQ1LjM3NSwxMjUsMjU1LjM3NSwxMjksMjQ1LjM3NSwxMjUsMjQ5LjM3NSIgc3R5bGU9InN0cm9rZTojMTgxODE4O3N0cm9rZS13aWR0aDoxLjA7Ii8+PGxpbmUgc3R5bGU9InN0cm9rZTojMTgxODE4O3N0cm9rZS13aWR0aDoxLjA7IiB4MT0iMjgxLjI1IiB4Mj0iMzM1LjUiIHkxPSIyMzMuMzc1IiB5Mj0iMjMzLjM3NSIvPjxsaW5lIHN0eWxlPSJzdHJva2U6IzE4MTgxODtzdHJva2Utd2lkdGg6MS4wOyIgeDE9IjMzNS41IiB4Mj0iMzM1LjUiIHkxPSIyMzMuMzc1IiB5Mj0iMjU1LjM3NSIvPjxwb2x5Z29uIGZpbGw9IiMxODE4MTgiIHBvaW50cz0iMzMxLjUsMjQ1LjM3NSwzMzUuNSwyNTUuMzc1LDMzOS41LDI0NS4zNzUsMzM1LjUsMjQ5LjM3NSIgc3R5bGU9InN0cm9rZTojMTgxODE4O3N0cm9rZS13aWR0aDoxLjA7Ii8+PGxpbmUgc3R5bGU9InN0cm9rZTojMTgxODE4O3N0cm9rZS13aWR0aDoxLjA7IiB4MT0iMTI1IiB4Mj0iMTI1IiB5MT0iNDE5LjU5MzgiIHkyPSI0MzcuNTkzOCIvPjxsaW5lIHN0eWxlPSJzdHJva2U6IzE4MTgxODtzdHJva2Utd2lkdGg6MS4wOyIgeDE9IjEyNSIgeDI9IjIxOC4yNSIgeTE9IjQzNy41OTM4IiB5Mj0iNDM3LjU5MzgiLz48cG9seWdvbiBmaWxsPSIjMTgxODE4IiBwb2ludHM9IjIwOC4yNSw0MzMuNTkzOCwyMTguMjUsNDM3LjU5MzgsMjA4LjI1LDQ0MS41OTM4LDIxMi4yNSw0MzcuNTkzOCIgc3R5bGU9InN0cm9rZTojMTgxODE4O3N0cm9rZS13aWR0aDoxLjA7Ii8+PGxpbmUgc3R5bGU9InN0cm9rZTojMTgxODE4O3N0cm9rZS13aWR0aDoxLjA7IiB4MT0iMzM1LjUiIHgyPSIzMzUuNSIgeTE9IjI4OC4yMTg4IiB5Mj0iNDM3LjU5MzgiLz48bGluZSBzdHlsZT0ic3Ryb2tlOiMxODE4MTg7c3Ryb2tlLXdpZHRoOjEuMDsiIHgxPSIzMzUuNSIgeDI9IjI0Mi4yNSIgeTE9IjQzNy41OTM4IiB5Mj0iNDM3LjU5MzgiLz48cG9seWdvbiBmaWxsPSIjMTgxODE4IiBwb2ludHM9IjI1Mi4yNSw0MzMuNTkzOCwyNDIuMjUsNDM3LjU5MzgsMjUyLjI1LDQ0MS41OTM4LDI0OC4yNSw0MzcuNTkzOCIgc3R5bGU9InN0cm9rZTojMTgxODE4O3N0cm9rZS13aWR0aDoxLjA7Ii8+PGxpbmUgc3R5bGU9InN0cm9rZTojMTgxODE4O3N0cm9rZS13aWR0aDoxLjA7IiB4MT0iMjMwLjI1IiB4Mj0iMjMwLjI1IiB5MT0iMjAxLjM3NSIgeTI9IjIyMS4zNzUiLz48cG9seWdvbiBmaWxsPSIjMTgxODE4IiBwb2ludHM9IjIyNi4yNSwyMTEuMzc1LDIzMC4yNSwyMjEuMzc1LDIzNC4yNSwyMTEuMzc1LDIzMC4yNSwyMTUuMzc1IiBzdHlsZT0ic3Ryb2tlOiMxODE4MTg7c3Ryb2tlLXdpZHRoOjEuMDsiLz48bGluZSBzdHlsZT0ic3Ryb2tlOiMxODE4MTg7c3Ryb2tlLXdpZHRoOjEuMDsiIHgxPSIyMzAuMjUiIHgyPSIyMzAuMjUiIHkxPSI0NDkuNTkzOCIgeTI9IjQ2OS41OTM4Ii8+PHBvbHlnb24gZmlsbD0iIzE4MTgxOCIgcG9pbnRzPSIyMjYuMjUsNDU5LjU5MzgsMjMwLjI1LDQ2OS41OTM4LDIzNC4yNSw0NTkuNTkzOCwyMzAuMjUsNDYzLjU5MzgiIHN0eWxlPSJzdHJva2U6IzE4MTgxODtzdHJva2Utd2lkdGg6MS4wOyIvPjxsaW5lIHN0eWxlPSJzdHJva2U6IzE4MTgxODtzdHJva2Utd2lkdGg6MS4wOyIgeDE9IjIzMC4yNSIgeDI9IjIzMC4yNSIgeTE9IjUwMi40Mzc1IiB5Mj0iNTIyLjQzNzUiLz48cG9seWdvbiBmaWxsPSIjMTgxODE4IiBwb2ludHM9IjIyNi4yNSw1MTIuNDM3NSwyMzAuMjUsNTIyLjQzNzUsMjM0LjI1LDUxMi40Mzc1LDIzMC4yNSw1MTYuNDM3NSIgc3R5bGU9InN0cm9rZTojMTgxODE4O3N0cm9rZS13aWR0aDoxLjA7Ii8+PCEtLVNSQz1bSlAwelJpSDAyOEx4ZHVCSUEtSzR3b2dBS2NvSFExTGp3R1JQczRPUUNuT21BTkFjdDI4TjJfdzlkMUJVdV82MUVRZk5yVk1rakEzWTVzU1hNRDJUTDIySDZOVU8tQWNMQmlsME9fY3B0MlQ1ZXBWcVJZOWo4azNMZzJreERnelRiZDVqdG9CZTZCNzJrbUlrLUhFVEctUzF3aVRNdkxzeFc0eWFLRGxGendLMmtEdnc0a1NYQUZRR240ODgxODdaUDl3UnJWSUlDNDFGS3A2S0ZoU29xdm9MNE5mQVlPMlMwcE9rc3NRVW5yNWZGMFFLaElHRmY1UE9lMFpxbDBnZTcwaWU2SzRqVVVEdlp2VTRfbC1Fckk4ejN0N2pIbzJuN3N5dUNtQTBwbnJENVRwQkJtMDBdLS0+PC9nPjwvc3ZnPg==;" vertex="1" parent="1">
            <mxGeometry x="920" y="70" width="423" height="555" as="geometry" />
          </mxCell>
        </UserObject>
        <UserObject label="" plantUmlData="{&quot;data&quot;:&quot;@startuml\nstart\n\n:Identifica verbi in forma passiva;\n\n:Estrai frasi contenenti i verbi identificati;\n\nrepeat\n    :corpo del ciclo;\nrepeat while (condizione)\n\n:Itera sui verbi e loro frase correlata;\n\nif (trovato verbo in forma passiva) then (sì)\n  :Evidenzia l&#39;istanza specifica del verbo\\nnel contesto della frase;\n  :Verifica la presenza del verbo in passive_memory;\\nAssegna un&#39;etichetta (tag) basata sulla memoria;\n  :Ottieni il Numero di Riga\\nCalcola la linea del verbo nel documento;\n  :Aggregazione dei Risultati\\nOrganizza i risultati in un dizionario;\nelse (no)\n  :Nessun Verbo in Forma Passiva Trovato;\nendif\n\n:Restituzione del dizionario dei risultati;\nstop\n@enduml\n&quot;,&quot;format&quot;:&quot;svg&quot;}" id="2Xxd8htiTgo1Ge0YMUIe-59">
          <mxCell style="shape=image;noLabel=1;verticalAlign=top;aspect=fixed;imageAspect=0;image=data:image/svg+xml,PD94bWwgdmVyc2lvbj0iMS4wIiBlbmNvZGluZz0idXMtYXNjaWkiIHN0YW5kYWxvbmU9Im5vIj8+PHN2ZyB4bWxucz0iaHR0cDovL3d3dy53My5vcmcvMjAwMC9zdmciIHhtbG5zOnhsaW5rPSJodHRwOi8vd3d3LnczLm9yZy8xOTk5L3hsaW5rIiBjb250ZW50U3R5bGVUeXBlPSJ0ZXh0L2NzcyIgaGVpZ2h0PSI3NjFweCIgcHJlc2VydmVBc3BlY3RSYXRpbz0ibm9uZSIgc3R5bGU9IndpZHRoOjY1NHB4O2hlaWdodDo3NjFweDtiYWNrZ3JvdW5kOiNGRkZGRkY7IiB2ZXJzaW9uPSIxLjEiIHZpZXdCb3g9IjAgMCA2NTQgNzYxIiB3aWR0aD0iNjU0cHgiIHpvb21BbmRQYW49Im1hZ25pZnkiPjxkZWZzLz48Zz48ZWxsaXBzZSBjeD0iMzQ2IiBjeT0iMjAiIGZpbGw9IiMyMjIyMjIiIHJ4PSIxMCIgcnk9IjEwIiBzdHlsZT0ic3Ryb2tlOiMyMjIyMjI7c3Ryb2tlLXdpZHRoOjEuMDsiLz48cmVjdCBmaWxsPSIjRjFGMUYxIiBoZWlnaHQ9IjMyLjg0MzgiIHJ4PSIxMi41IiByeT0iMTIuNSIgc3R5bGU9InN0cm9rZTojMTgxODE4O3N0cm9rZS13aWR0aDowLjU7IiB3aWR0aD0iMjM2IiB4PSIyMjgiIHk9IjUwIi8+PHRleHQgZmlsbD0iIzAwMDAwMCIgZm9udC1mYW1pbHk9InNhbnMtc2VyaWYiIGZvbnQtc2l6ZT0iMTIiIGxlbmd0aEFkanVzdD0ic3BhY2luZyIgdGV4dExlbmd0aD0iMjE2IiB4PSIyMzgiIHk9IjcxLjM0MzgiPklkZW50aWZpY2EgdmVyYmkgaW4gZm9ybWEgcGFzc2l2YTwvdGV4dD48cmVjdCBmaWxsPSIjRjFGMUYxIiBoZWlnaHQ9IjMyLjg0MzgiIHJ4PSIxMi41IiByeT0iMTIuNSIgc3R5bGU9InN0cm9rZTojMTgxODE4O3N0cm9rZS13aWR0aDowLjU7IiB3aWR0aD0iMzA0IiB4PSIxOTQiIHk9IjEwMi44NDM4Ii8+PHRleHQgZmlsbD0iIzAwMDAwMCIgZm9udC1mYW1pbHk9InNhbnMtc2VyaWYiIGZvbnQtc2l6ZT0iMTIiIGxlbmd0aEFkanVzdD0ic3BhY2luZyIgdGV4dExlbmd0aD0iMjg0IiB4PSIyMDQiIHk9IjEyNC4xODc1Ij5Fc3RyYWkgZnJhc2kgY29udGVuZW50aSBpIHZlcmJpIGlkZW50aWZpY2F0aTwvdGV4dD48cmVjdCBmaWxsPSIjRjFGMUYxIiBoZWlnaHQ9IjMyLjg0MzgiIHJ4PSIxMi41IiByeT0iMTIuNSIgc3R5bGU9InN0cm9rZTojMTgxODE4O3N0cm9rZS13aWR0aDowLjU7IiB3aWR0aD0iMTE3IiB4PSIyODcuNSIgeT0iMTk5LjY4NzUiLz48dGV4dCBmaWxsPSIjMDAwMDAwIiBmb250LWZhbWlseT0ic2Fucy1zZXJpZiIgZm9udC1zaXplPSIxMiIgbGVuZ3RoQWRqdXN0PSJzcGFjaW5nIiB0ZXh0TGVuZ3RoPSI5NyIgeD0iMjk3LjUiIHk9IjIyMS4wMzEzIj5jb3JwbyBkZWwgY2ljbG88L3RleHQ+PHBvbHlnb24gZmlsbD0iI0YxRjFGMSIgcG9pbnRzPSIzNDYsMTU1LjY4NzUsMzU4LDE2Ny42ODc1LDM0NiwxNzkuNjg3NSwzMzQsMTY3LjY4NzUsMzQ2LDE1NS42ODc1IiBzdHlsZT0ic3Ryb2tlOiMxODE4MTg7c3Ryb2tlLXdpZHRoOjAuNTsiLz48cG9seWdvbiBmaWxsPSIjRjFGMUYxIiBwb2ludHM9IjMxNiwyNTIuNTMxMywzNzYsMjUyLjUzMTMsMzg4LDI2NC41MzEzLDM3NiwyNzYuNTMxMywzMTYsMjc2LjUzMTMsMzA0LDI2NC41MzEzLDMxNiwyNTIuNTMxMyIgc3R5bGU9InN0cm9rZTojMTgxODE4O3N0cm9rZS13aWR0aDowLjU7Ii8+PHRleHQgZmlsbD0iIzAwMDAwMCIgZm9udC1mYW1pbHk9InNhbnMtc2VyaWYiIGZvbnQtc2l6ZT0iMTEiIGxlbmd0aEFkanVzdD0ic3BhY2luZyIgdGV4dExlbmd0aD0iNjAiIHg9IjMxNiIgeT0iMjY5LjA0MyI+Y29uZGl6aW9uZTwvdGV4dD48cmVjdCBmaWxsPSIjRjFGMUYxIiBoZWlnaHQ9IjMyLjg0MzgiIHJ4PSIxMi41IiByeT0iMTIuNSIgc3R5bGU9InN0cm9rZTojMTgxODE4O3N0cm9rZS13aWR0aDowLjU7IiB3aWR0aD0iMjcxIiB4PSIyMTAuNSIgeT0iMjk2LjUzMTMiLz48dGV4dCBmaWxsPSIjMDAwMDAwIiBmb250LWZhbWlseT0ic2Fucy1zZXJpZiIgZm9udC1zaXplPSIxMiIgbGVuZ3RoQWRqdXN0PSJzcGFjaW5nIiB0ZXh0TGVuZ3RoPSIyNTEiIHg9IjIyMC41IiB5PSIzMTcuODc1Ij5JdGVyYSBzdWkgdmVyYmkgZSBsb3JvIGZyYXNlIGNvcnJlbGF0YTwvdGV4dD48cG9seWdvbiBmaWxsPSIjRjFGMUYxIiBwb2ludHM9IjI1NiwzNDkuMzc1LDQzNiwzNDkuMzc1LDQ0OCwzNjEuMzc1LDQzNiwzNzMuMzc1LDI1NiwzNzMuMzc1LDI0NCwzNjEuMzc1LDI1NiwzNDkuMzc1IiBzdHlsZT0ic3Ryb2tlOiMxODE4MTg7c3Ryb2tlLXdpZHRoOjAuNTsiLz48dGV4dCBmaWxsPSIjMDAwMDAwIiBmb250LWZhbWlseT0ic2Fucy1zZXJpZiIgZm9udC1zaXplPSIxMSIgbGVuZ3RoQWRqdXN0PSJzcGFjaW5nIiB0ZXh0TGVuZ3RoPSIxODAiIHg9IjI1NiIgeT0iMzY1Ljg4NjciPnRyb3ZhdG8gdmVyYm8gaW4gZm9ybWEgcGFzc2l2YTwvdGV4dD48dGV4dCBmaWxsPSIjMDAwMDAwIiBmb250LWZhbWlseT0ic2Fucy1zZXJpZiIgZm9udC1zaXplPSIxMSIgbGVuZ3RoQWRqdXN0PSJzcGFjaW5nIiB0ZXh0TGVuZ3RoPSIxMiIgeD0iMjMyIiB5PSIzNjAiPnMmIzIzNjs8L3RleHQ+PHRleHQgZmlsbD0iIzAwMDAwMCIgZm9udC1mYW1pbHk9InNhbnMtc2VyaWYiIGZvbnQtc2l6ZT0iMTEiIGxlbmd0aEFkanVzdD0ic3BhY2luZyIgdGV4dExlbmd0aD0iMTIiIHg9IjQ0OCIgeT0iMzYwIj5ubzwvdGV4dD48cmVjdCBmaWxsPSIjRjFGMUYxIiBoZWlnaHQ9IjQ1LjY4NzUiIHJ4PSIxMi41IiByeT0iMTIuNSIgc3R5bGU9InN0cm9rZTojMTgxODE4O3N0cm9rZS13aWR0aDowLjU7IiB3aWR0aD0iMjc0IiB4PSI0NiIgeT0iMzgzLjM3NSIvPjx0ZXh0IGZpbGw9IiMwMDAwMDAiIGZvbnQtZmFtaWx5PSJzYW5zLXNlcmlmIiBmb250LXNpemU9IjEyIiBsZW5ndGhBZGp1c3Q9InNwYWNpbmciIHRleHRMZW5ndGg9IjI1NCIgeD0iNTYiIHk9IjQwNC43MTg4Ij5FdmlkZW56aWEgbCdpc3RhbnphIHNwZWNpZmljYSBkZWwgdmVyYm88L3RleHQ+PHRleHQgZmlsbD0iIzAwMDAwMCIgZm9udC1mYW1pbHk9InNhbnMtc2VyaWYiIGZvbnQtc2l6ZT0iMTIiIGxlbmd0aEFkanVzdD0ic3BhY2luZyIgdGV4dExlbmd0aD0iMTU4IiB4PSI1NiIgeT0iNDE3LjU2MjUiPm5lbCBjb250ZXN0byBkZWxsYSBmcmFzZTwvdGV4dD48cmVjdCBmaWxsPSIjRjFGMUYxIiBoZWlnaHQ9IjQ1LjY4NzUiIHJ4PSIxMi41IiByeT0iMTIuNSIgc3R5bGU9InN0cm9rZTojMTgxODE4O3N0cm9rZS13aWR0aDowLjU7IiB3aWR0aD0iMzQ0IiB4PSIxMSIgeT0iNDQ5LjA2MjUiLz48dGV4dCBmaWxsPSIjMDAwMDAwIiBmb250LWZhbWlseT0ic2Fucy1zZXJpZiIgZm9udC1zaXplPSIxMiIgbGVuZ3RoQWRqdXN0PSJzcGFjaW5nIiB0ZXh0TGVuZ3RoPSIzMjQiIHg9IjIxIiB5PSI0NzAuNDA2MyI+VmVyaWZpY2EgbGEgcHJlc2VuemEgZGVsIHZlcmJvIGluIHBhc3NpdmVfbWVtb3J5OzwvdGV4dD48dGV4dCBmaWxsPSIjMDAwMDAwIiBmb250LWZhbWlseT0ic2Fucy1zZXJpZiIgZm9udC1zaXplPSIxMiIgbGVuZ3RoQWRqdXN0PSJzcGFjaW5nIiB0ZXh0TGVuZ3RoPSIzMDkiIHg9IjIxIiB5PSI0ODMuMjUiPkFzc2VnbmEgdW4nZXRpY2hldHRhICh0YWcpIGJhc2F0YSBzdWxsYSBtZW1vcmlhPC90ZXh0PjxyZWN0IGZpbGw9IiNGMUYxRjEiIGhlaWdodD0iNDUuNjg3NSIgcng9IjEyLjUiIHJ5PSIxMi41IiBzdHlsZT0ic3Ryb2tlOiMxODE4MTg7c3Ryb2tlLXdpZHRoOjAuNTsiIHdpZHRoPSIyODMiIHg9IjQxLjUiIHk9IjUxNC43NSIvPjx0ZXh0IGZpbGw9IiMwMDAwMDAiIGZvbnQtZmFtaWx5PSJzYW5zLXNlcmlmIiBmb250LXNpemU9IjEyIiBsZW5ndGhBZGp1c3Q9InNwYWNpbmciIHRleHRMZW5ndGg9IjE2MiIgeD0iNTEuNSIgeT0iNTM2LjA5MzgiPk90dGllbmkgaWwgTnVtZXJvIGRpIFJpZ2E8L3RleHQ+PHRleHQgZmlsbD0iIzAwMDAwMCIgZm9udC1mYW1pbHk9InNhbnMtc2VyaWYiIGZvbnQtc2l6ZT0iMTIiIGxlbmd0aEFkanVzdD0ic3BhY2luZyIgdGV4dExlbmd0aD0iMjYzIiB4PSI1MS41IiB5PSI1NDguOTM3NSI+Q2FsY29sYSBsYSBsaW5lYSBkZWwgdmVyYm8gbmVsIGRvY3VtZW50bzwvdGV4dD48cmVjdCBmaWxsPSIjRjFGMUYxIiBoZWlnaHQ9IjQ1LjY4NzUiIHJ4PSIxMi41IiByeT0iMTIuNSIgc3R5bGU9InN0cm9rZTojMTgxODE4O3N0cm9rZS13aWR0aDowLjU7IiB3aWR0aD0iMjY3IiB4PSI0OS41IiB5PSI1ODAuNDM3NSIvPjx0ZXh0IGZpbGw9IiMwMDAwMDAiIGZvbnQtZmFtaWx5PSJzYW5zLXNlcmlmIiBmb250LXNpemU9IjEyIiBsZW5ndGhBZGp1c3Q9InNwYWNpbmciIHRleHRMZW5ndGg9IjE3MiIgeD0iNTkuNSIgeT0iNjAxLjc4MTMiPkFnZ3JlZ2F6aW9uZSBkZWkgUmlzdWx0YXRpPC90ZXh0Pjx0ZXh0IGZpbGw9IiMwMDAwMDAiIGZvbnQtZmFtaWx5PSJzYW5zLXNlcmlmIiBmb250LXNpemU9IjEyIiBsZW5ndGhBZGp1c3Q9InNwYWNpbmciIHRleHRMZW5ndGg9IjI0NyIgeD0iNTkuNSIgeT0iNjE0LjYyNSI+T3JnYW5penphIGkgcmlzdWx0YXRpIGluIHVuIGRpemlvbmFyaW88L3RleHQ+PHJlY3QgZmlsbD0iI0YxRjFGMSIgaGVpZ2h0PSIzMi44NDM4IiByeD0iMTIuNSIgcnk9IjEyLjUiIHN0eWxlPSJzdHJva2U6IzE4MTgxODtzdHJva2Utd2lkdGg6MC41OyIgd2lkdGg9IjI2OCIgeD0iMzc1IiB5PSIzODMuMzc1Ii8+PHRleHQgZmlsbD0iIzAwMDAwMCIgZm9udC1mYW1pbHk9InNhbnMtc2VyaWYiIGZvbnQtc2l6ZT0iMTIiIGxlbmd0aEFkanVzdD0ic3BhY2luZyIgdGV4dExlbmd0aD0iMjQ4IiB4PSIzODUiIHk9IjQwNC43MTg4Ij5OZXNzdW4gVmVyYm8gaW4gRm9ybWEgUGFzc2l2YSBUcm92YXRvPC90ZXh0Pjxwb2x5Z29uIGZpbGw9IiNGMUYxRjEiIHBvaW50cz0iMzQ2LDYzMi4xMjUsMzU4LDY0NC4xMjUsMzQ2LDY1Ni4xMjUsMzM0LDY0NC4xMjUsMzQ2LDYzMi4xMjUiIHN0eWxlPSJzdHJva2U6IzE4MTgxODtzdHJva2Utd2lkdGg6MC41OyIvPjxyZWN0IGZpbGw9IiNGMUYxRjEiIGhlaWdodD0iMzIuODQzOCIgcng9IjEyLjUiIHJ5PSIxMi41IiBzdHlsZT0ic3Ryb2tlOiMxODE4MTg7c3Ryb2tlLXdpZHRoOjAuNTsiIHdpZHRoPSIyODciIHg9IjIwMi41IiB5PSI2NzYuMTI1Ii8+PHRleHQgZmlsbD0iIzAwMDAwMCIgZm9udC1mYW1pbHk9InNhbnMtc2VyaWYiIGZvbnQtc2l6ZT0iMTIiIGxlbmd0aEFkanVzdD0ic3BhY2luZyIgdGV4dExlbmd0aD0iMjY3IiB4PSIyMTIuNSIgeT0iNjk3LjQ2ODgiPlJlc3RpdHV6aW9uZSBkZWwgZGl6aW9uYXJpbyBkZWkgcmlzdWx0YXRpPC90ZXh0PjxlbGxpcHNlIGN4PSIzNDYiIGN5PSI3MzkuOTY4OCIgZmlsbD0ibm9uZSIgcng9IjExIiByeT0iMTEiIHN0eWxlPSJzdHJva2U6IzIyMjIyMjtzdHJva2Utd2lkdGg6MS4wOyIvPjxlbGxpcHNlIGN4PSIzNDYiIGN5PSI3MzkuOTY4OCIgZmlsbD0iIzIyMjIyMiIgcng9IjYiIHJ5PSI2IiBzdHlsZT0ic3Ryb2tlOiMxMTExMTE7c3Ryb2tlLXdpZHRoOjEuMDsiLz48bGluZSBzdHlsZT0ic3Ryb2tlOiMxODE4MTg7c3Ryb2tlLXdpZHRoOjEuMDsiIHgxPSIzNDYiIHgyPSIzNDYiIHkxPSIzMCIgeTI9IjUwIi8+PHBvbHlnb24gZmlsbD0iIzE4MTgxOCIgcG9pbnRzPSIzNDIsNDAsMzQ2LDUwLDM1MCw0MCwzNDYsNDQiIHN0eWxlPSJzdHJva2U6IzE4MTgxODtzdHJva2Utd2lkdGg6MS4wOyIvPjxsaW5lIHN0eWxlPSJzdHJva2U6IzE4MTgxODtzdHJva2Utd2lkdGg6MS4wOyIgeDE9IjM0NiIgeDI9IjM0NiIgeTE9IjgyLjg0MzgiIHkyPSIxMDIuODQzOCIvPjxwb2x5Z29uIGZpbGw9IiMxODE4MTgiIHBvaW50cz0iMzQyLDkyLjg0MzgsMzQ2LDEwMi44NDM4LDM1MCw5Mi44NDM4LDM0Niw5Ni44NDM4IiBzdHlsZT0ic3Ryb2tlOiMxODE4MTg7c3Ryb2tlLXdpZHRoOjEuMDsiLz48bGluZSBzdHlsZT0ic3Ryb2tlOiMxODE4MTg7c3Ryb2tlLXdpZHRoOjEuMDsiIHgxPSIzNDYiIHgyPSIzNDYiIHkxPSIxNzkuNjg3NSIgeTI9IjE5OS42ODc1Ii8+PHBvbHlnb24gZmlsbD0iIzE4MTgxOCIgcG9pbnRzPSIzNDIsMTg5LjY4NzUsMzQ2LDE5OS42ODc1LDM1MCwxODkuNjg3NSwzNDYsMTkzLjY4NzUiIHN0eWxlPSJzdHJva2U6IzE4MTgxODtzdHJva2Utd2lkdGg6MS4wOyIvPjxsaW5lIHN0eWxlPSJzdHJva2U6IzE4MTgxODtzdHJva2Utd2lkdGg6MS4wOyIgeDE9IjM4OCIgeDI9IjQxNi41IiB5MT0iMjY0LjUzMTMiIHkyPSIyNjQuNTMxMyIvPjxwb2x5Z29uIGZpbGw9IiMxODE4MTgiIHBvaW50cz0iNDEyLjUsMjI2LjEwOTQsNDE2LjUsMjE2LjEwOTQsNDIwLjUsMjI2LjEwOTQsNDE2LjUsMjIyLjEwOTQiIHN0eWxlPSJzdHJva2U6IzE4MTgxODtzdHJva2Utd2lkdGg6MS4wOyIvPjxsaW5lIHN0eWxlPSJzdHJva2U6IzE4MTgxODtzdHJva2Utd2lkdGg6MS4wOyIgeDE9IjQxNi41IiB4Mj0iNDE2LjUiIHkxPSIxNjcuNjg3NSIgeTI9IjI2NC41MzEzIi8+PGxpbmUgc3R5bGU9InN0cm9rZTojMTgxODE4O3N0cm9rZS13aWR0aDoxLjA7IiB4MT0iNDE2LjUiIHgyPSIzNTgiIHkxPSIxNjcuNjg3NSIgeTI9IjE2Ny42ODc1Ii8+PHBvbHlnb24gZmlsbD0iIzE4MTgxOCIgcG9pbnRzPSIzNjgsMTYzLjY4NzUsMzU4LDE2Ny42ODc1LDM2OCwxNzEuNjg3NSwzNjQsMTY3LjY4NzUiIHN0eWxlPSJzdHJva2U6IzE4MTgxODtzdHJva2Utd2lkdGg6MS4wOyIvPjxsaW5lIHN0eWxlPSJzdHJva2U6IzE4MTgxODtzdHJva2Utd2lkdGg6MS4wOyIgeDE9IjM0NiIgeDI9IjM0NiIgeTE9IjIzMi41MzEzIiB5Mj0iMjUyLjUzMTMiLz48cG9seWdvbiBmaWxsPSIjMTgxODE4IiBwb2ludHM9IjM0MiwyNDIuNTMxMywzNDYsMjUyLjUzMTMsMzUwLDI0Mi41MzEzLDM0NiwyNDYuNTMxMyIgc3R5bGU9InN0cm9rZTojMTgxODE4O3N0cm9rZS13aWR0aDoxLjA7Ii8+PGxpbmUgc3R5bGU9InN0cm9rZTojMTgxODE4O3N0cm9rZS13aWR0aDoxLjA7IiB4MT0iMzQ2IiB4Mj0iMzQ2IiB5MT0iMTM1LjY4NzUiIHkyPSIxNTUuNjg3NSIvPjxwb2x5Z29uIGZpbGw9IiMxODE4MTgiIHBvaW50cz0iMzQyLDE0NS42ODc1LDM0NiwxNTUuNjg3NSwzNTAsMTQ1LjY4NzUsMzQ2LDE0OS42ODc1IiBzdHlsZT0ic3Ryb2tlOiMxODE4MTg7c3Ryb2tlLXdpZHRoOjEuMDsiLz48bGluZSBzdHlsZT0ic3Ryb2tlOiMxODE4MTg7c3Ryb2tlLXdpZHRoOjEuMDsiIHgxPSIzNDYiIHgyPSIzNDYiIHkxPSIyNzYuNTMxMyIgeTI9IjI5Ni41MzEzIi8+PHBvbHlnb24gZmlsbD0iIzE4MTgxOCIgcG9pbnRzPSIzNDIsMjg2LjUzMTMsMzQ2LDI5Ni41MzEzLDM1MCwyODYuNTMxMywzNDYsMjkwLjUzMTMiIHN0eWxlPSJzdHJva2U6IzE4MTgxODtzdHJva2Utd2lkdGg6MS4wOyIvPjxsaW5lIHN0eWxlPSJzdHJva2U6IzE4MTgxODtzdHJva2Utd2lkdGg6MS4wOyIgeDE9IjE4MyIgeDI9IjE4MyIgeTE9IjQyOS4wNjI1IiB5Mj0iNDQ5LjA2MjUiLz48cG9seWdvbiBmaWxsPSIjMTgxODE4IiBwb2ludHM9IjE3OSw0MzkuMDYyNSwxODMsNDQ5LjA2MjUsMTg3LDQzOS4wNjI1LDE4Myw0NDMuMDYyNSIgc3R5bGU9InN0cm9rZTojMTgxODE4O3N0cm9rZS13aWR0aDoxLjA7Ii8+PGxpbmUgc3R5bGU9InN0cm9rZTojMTgxODE4O3N0cm9rZS13aWR0aDoxLjA7IiB4MT0iMTgzIiB4Mj0iMTgzIiB5MT0iNDk0Ljc1IiB5Mj0iNTE0Ljc1Ii8+PHBvbHlnb24gZmlsbD0iIzE4MTgxOCIgcG9pbnRzPSIxNzksNTA0Ljc1LDE4Myw1MTQuNzUsMTg3LDUwNC43NSwxODMsNTA4Ljc1IiBzdHlsZT0ic3Ryb2tlOiMxODE4MTg7c3Ryb2tlLXdpZHRoOjEuMDsiLz48bGluZSBzdHlsZT0ic3Ryb2tlOiMxODE4MTg7c3Ryb2tlLXdpZHRoOjEuMDsiIHgxPSIxODMiIHgyPSIxODMiIHkxPSI1NjAuNDM3NSIgeTI9IjU4MC40Mzc1Ii8+PHBvbHlnb24gZmlsbD0iIzE4MTgxOCIgcG9pbnRzPSIxNzksNTcwLjQzNzUsMTgzLDU4MC40Mzc1LDE4Nyw1NzAuNDM3NSwxODMsNTc0LjQzNzUiIHN0eWxlPSJzdHJva2U6IzE4MTgxODtzdHJva2Utd2lkdGg6MS4wOyIvPjxsaW5lIHN0eWxlPSJzdHJva2U6IzE4MTgxODtzdHJva2Utd2lkdGg6MS4wOyIgeDE9IjI0NCIgeDI9IjE4MyIgeTE9IjM2MS4zNzUiIHkyPSIzNjEuMzc1Ii8+PGxpbmUgc3R5bGU9InN0cm9rZTojMTgxODE4O3N0cm9rZS13aWR0aDoxLjA7IiB4MT0iMTgzIiB4Mj0iMTgzIiB5MT0iMzYxLjM3NSIgeTI9IjM4My4zNzUiLz48cG9seWdvbiBmaWxsPSIjMTgxODE4IiBwb2ludHM9IjE3OSwzNzMuMzc1LDE4MywzODMuMzc1LDE4NywzNzMuMzc1LDE4MywzNzcuMzc1IiBzdHlsZT0ic3Ryb2tlOiMxODE4MTg7c3Ryb2tlLXdpZHRoOjEuMDsiLz48bGluZSBzdHlsZT0ic3Ryb2tlOiMxODE4MTg7c3Ryb2tlLXdpZHRoOjEuMDsiIHgxPSI0NDgiIHgyPSI1MDkiIHkxPSIzNjEuMzc1IiB5Mj0iMzYxLjM3NSIvPjxsaW5lIHN0eWxlPSJzdHJva2U6IzE4MTgxODtzdHJva2Utd2lkdGg6MS4wOyIgeDE9IjUwOSIgeDI9IjUwOSIgeTE9IjM2MS4zNzUiIHkyPSIzODMuMzc1Ii8+PHBvbHlnb24gZmlsbD0iIzE4MTgxOCIgcG9pbnRzPSI1MDUsMzczLjM3NSw1MDksMzgzLjM3NSw1MTMsMzczLjM3NSw1MDksMzc3LjM3NSIgc3R5bGU9InN0cm9rZTojMTgxODE4O3N0cm9rZS13aWR0aDoxLjA7Ii8+PGxpbmUgc3R5bGU9InN0cm9rZTojMTgxODE4O3N0cm9rZS13aWR0aDoxLjA7IiB4MT0iMTgzIiB4Mj0iMTgzIiB5MT0iNjI2LjEyNSIgeTI9IjY0NC4xMjUiLz48bGluZSBzdHlsZT0ic3Ryb2tlOiMxODE4MTg7c3Ryb2tlLXdpZHRoOjEuMDsiIHgxPSIxODMiIHgyPSIzMzQiIHkxPSI2NDQuMTI1IiB5Mj0iNjQ0LjEyNSIvPjxwb2x5Z29uIGZpbGw9IiMxODE4MTgiIHBvaW50cz0iMzI0LDY0MC4xMjUsMzM0LDY0NC4xMjUsMzI0LDY0OC4xMjUsMzI4LDY0NC4xMjUiIHN0eWxlPSJzdHJva2U6IzE4MTgxODtzdHJva2Utd2lkdGg6MS4wOyIvPjxsaW5lIHN0eWxlPSJzdHJva2U6IzE4MTgxODtzdHJva2Utd2lkdGg6MS4wOyIgeDE9IjUwOSIgeDI9IjUwOSIgeTE9IjQxNi4yMTg4IiB5Mj0iNjQ0LjEyNSIvPjxsaW5lIHN0eWxlPSJzdHJva2U6IzE4MTgxODtzdHJva2Utd2lkdGg6MS4wOyIgeDE9IjUwOSIgeDI9IjM1OCIgeTE9IjY0NC4xMjUiIHkyPSI2NDQuMTI1Ii8+PHBvbHlnb24gZmlsbD0iIzE4MTgxOCIgcG9pbnRzPSIzNjgsNjQwLjEyNSwzNTgsNjQ0LjEyNSwzNjgsNjQ4LjEyNSwzNjQsNjQ0LjEyNSIgc3R5bGU9InN0cm9rZTojMTgxODE4O3N0cm9rZS13aWR0aDoxLjA7Ii8+PGxpbmUgc3R5bGU9InN0cm9rZTojMTgxODE4O3N0cm9rZS13aWR0aDoxLjA7IiB4MT0iMzQ2IiB4Mj0iMzQ2IiB5MT0iMzI5LjM3NSIgeTI9IjM0OS4zNzUiLz48cG9seWdvbiBmaWxsPSIjMTgxODE4IiBwb2ludHM9IjM0MiwzMzkuMzc1LDM0NiwzNDkuMzc1LDM1MCwzMzkuMzc1LDM0NiwzNDMuMzc1IiBzdHlsZT0ic3Ryb2tlOiMxODE4MTg7c3Ryb2tlLXdpZHRoOjEuMDsiLz48bGluZSBzdHlsZT0ic3Ryb2tlOiMxODE4MTg7c3Ryb2tlLXdpZHRoOjEuMDsiIHgxPSIzNDYiIHgyPSIzNDYiIHkxPSI2NTYuMTI1IiB5Mj0iNjc2LjEyNSIvPjxwb2x5Z29uIGZpbGw9IiMxODE4MTgiIHBvaW50cz0iMzQyLDY2Ni4xMjUsMzQ2LDY3Ni4xMjUsMzUwLDY2Ni4xMjUsMzQ2LDY3MC4xMjUiIHN0eWxlPSJzdHJva2U6IzE4MTgxODtzdHJva2Utd2lkdGg6MS4wOyIvPjxsaW5lIHN0eWxlPSJzdHJva2U6IzE4MTgxODtzdHJva2Utd2lkdGg6MS4wOyIgeDE9IjM0NiIgeDI9IjM0NiIgeTE9IjcwOC45Njg4IiB5Mj0iNzI4Ljk2ODgiLz48cG9seWdvbiBmaWxsPSIjMTgxODE4IiBwb2ludHM9IjM0Miw3MTguOTY4OCwzNDYsNzI4Ljk2ODgsMzUwLDcxOC45Njg4LDM0Niw3MjIuOTY4OCIgc3R5bGU9InN0cm9rZTojMTgxODE4O3N0cm9rZS13aWR0aDoxLjA7Ii8+PCEtLVNSQz1bUFA1MVFpRDAzNE50RU9Mc0pRdUdocWY5ZVBrYWI5OUxlMlhac0g1Q0Q0T1pmcEhkd1lyd2lNaDZUR1pLb3g3LV9xelZzTDFqaUxZX2oySjY3R1U0Mi1jSFdHTXdmNlU0ME5GYzJwTy1qQ2Njb0QwZlBlUUduNFlBMmRaTXQ0b0NWTHZmOEJHNS1CU0VJT1M0QktLODc2OWdfZHgydnVhWm1UQkRNaHZvNGJlTDYyRDVvRUZpSW4ySmZmZkJkZ2pBNFFxR1NHVEJxdEgxSXRLcV9TRFVXUHI4TzliX2xiVEVpanZTMmtJTDRVODNQcUV2VWoxME9MZ3p5NU1WV3FYMUJJamNnem1IZl9vY2tFbjk5dTZfM2FnUFlpckROMjJjVUZldXFwZGZMdEVHbnZvZjV1SEg3aVd1ZENXQzdIeHg1SG1uLXBnLVJtY2YwaU9RaXBEWjRreXJtZE95YXJWR0Nobm5abVR2bVhYSWgwMkhYVXhKMnRjUldXbDRLbEx2eDdrYjdja19GYld5RkNweUlXVlBRT18yTC1UZHFGY3ZSMzBBSjJUMVBSVVh3RHFsOVRLTWp2SXBfel9Gc3B4Tm9iLWRvazV6a2VYaF9BWVR0X0ZESXNHUnZfbnVQcm5uUmhkRG1qaVVWVzQwXS0tPjwvZz48L3N2Zz4=;" vertex="1" parent="1">
            <mxGeometry x="37" y="690" width="654" height="761" as="geometry" />
          </mxCell>
        </UserObject>
        <UserObject label="" plantUmlData="{&#xa;  &quot;data&quot;: &quot;@startuml\nstart\n\n:inizializzazione;\nrepeat\n    :corpo del ciclo;\nrepeat while (condizione)\n:istruzioni successive;\nstop\n@enduml\n&quot;,&#xa;  &quot;format&quot;: &quot;svg&quot;&#xa;}" id="2Xxd8htiTgo1Ge0YMUIe-60">
          <mxCell style="shape=image;noLabel=1;verticalAlign=top;aspect=fixed;imageAspect=0;image=data:image/svg+xml,PD94bWwgdmVyc2lvbj0iMS4wIiBlbmNvZGluZz0idXMtYXNjaWkiIHN0YW5kYWxvbmU9Im5vIj8+PHN2ZyB4bWxucz0iaHR0cDovL3d3dy53My5vcmcvMjAwMC9zdmciIHhtbG5zOnhsaW5rPSJodHRwOi8vd3d3LnczLm9yZy8xOTk5L3hsaW5rIiBjb250ZW50U3R5bGVUeXBlPSJ0ZXh0L2NzcyIgaGVpZ2h0PSIzMjlweCIgcHJlc2VydmVBc3BlY3RSYXRpbz0ibm9uZSIgc3R5bGU9IndpZHRoOjE4NnB4O2hlaWdodDozMjlweDtiYWNrZ3JvdW5kOiNGRkZGRkY7IiB2ZXJzaW9uPSIxLjEiIHZpZXdCb3g9IjAgMCAxODYgMzI5IiB3aWR0aD0iMTg2cHgiIHpvb21BbmRQYW49Im1hZ25pZnkiPjxkZWZzLz48Zz48ZWxsaXBzZSBjeD0iOTAiIGN5PSIyMCIgZmlsbD0iIzIyMjIyMiIgcng9IjEwIiByeT0iMTAiIHN0eWxlPSJzdHJva2U6IzIyMjIyMjtzdHJva2Utd2lkdGg6MS4wOyIvPjxyZWN0IGZpbGw9IiNGMUYxRjEiIGhlaWdodD0iMzIuODQzOCIgcng9IjEyLjUiIHJ5PSIxMi41IiBzdHlsZT0ic3Ryb2tlOiMxODE4MTg7c3Ryb2tlLXdpZHRoOjAuNTsiIHdpZHRoPSIxMjIiIHg9IjI5IiB5PSI1MCIvPjx0ZXh0IGZpbGw9IiMwMDAwMDAiIGZvbnQtZmFtaWx5PSJzYW5zLXNlcmlmIiBmb250LXNpemU9IjEyIiBsZW5ndGhBZGp1c3Q9InNwYWNpbmciIHRleHRMZW5ndGg9IjEwMiIgeD0iMzkiIHk9IjcxLjM0MzgiPmluaXppYWxpenphemlvbmU8L3RleHQ+PHJlY3QgZmlsbD0iI0YxRjFGMSIgaGVpZ2h0PSIzMi44NDM4IiByeD0iMTIuNSIgcnk9IjEyLjUiIHN0eWxlPSJzdHJva2U6IzE4MTgxODtzdHJva2Utd2lkdGg6MC41OyIgd2lkdGg9IjExNyIgeD0iMzEuNSIgeT0iMTQ2Ljg0MzgiLz48dGV4dCBmaWxsPSIjMDAwMDAwIiBmb250LWZhbWlseT0ic2Fucy1zZXJpZiIgZm9udC1zaXplPSIxMiIgbGVuZ3RoQWRqdXN0PSJzcGFjaW5nIiB0ZXh0TGVuZ3RoPSI5NyIgeD0iNDEuNSIgeT0iMTY4LjE4NzUiPmNvcnBvIGRlbCBjaWNsbzwvdGV4dD48cG9seWdvbiBmaWxsPSIjRjFGMUYxIiBwb2ludHM9IjkwLDEwMi44NDM4LDEwMiwxMTQuODQzOCw5MCwxMjYuODQzOCw3OCwxMTQuODQzOCw5MCwxMDIuODQzOCIgc3R5bGU9InN0cm9rZTojMTgxODE4O3N0cm9rZS13aWR0aDowLjU7Ii8+PHBvbHlnb24gZmlsbD0iI0YxRjFGMSIgcG9pbnRzPSI2MCwxOTkuNjg3NSwxMjAsMTk5LjY4NzUsMTMyLDIxMS42ODc1LDEyMCwyMjMuNjg3NSw2MCwyMjMuNjg3NSw0OCwyMTEuNjg3NSw2MCwxOTkuNjg3NSIgc3R5bGU9InN0cm9rZTojMTgxODE4O3N0cm9rZS13aWR0aDowLjU7Ii8+PHRleHQgZmlsbD0iIzAwMDAwMCIgZm9udC1mYW1pbHk9InNhbnMtc2VyaWYiIGZvbnQtc2l6ZT0iMTEiIGxlbmd0aEFkanVzdD0ic3BhY2luZyIgdGV4dExlbmd0aD0iNjAiIHg9IjYwIiB5PSIyMTYuMTk5MiI+Y29uZGl6aW9uZTwvdGV4dD48cmVjdCBmaWxsPSIjRjFGMUYxIiBoZWlnaHQ9IjMyLjg0MzgiIHJ4PSIxMi41IiByeT0iMTIuNSIgc3R5bGU9InN0cm9rZTojMTgxODE4O3N0cm9rZS13aWR0aDowLjU7IiB3aWR0aD0iMTU4IiB4PSIxMSIgeT0iMjQzLjY4NzUiLz48dGV4dCBmaWxsPSIjMDAwMDAwIiBmb250LWZhbWlseT0ic2Fucy1zZXJpZiIgZm9udC1zaXplPSIxMiIgbGVuZ3RoQWRqdXN0PSJzcGFjaW5nIiB0ZXh0TGVuZ3RoPSIxMzgiIHg9IjIxIiB5PSIyNjUuMDMxMyI+aXN0cnV6aW9uaSBzdWNjZXNzaXZlPC90ZXh0PjxlbGxpcHNlIGN4PSI5MCIgY3k9IjMwNy41MzEzIiBmaWxsPSJub25lIiByeD0iMTEiIHJ5PSIxMSIgc3R5bGU9InN0cm9rZTojMjIyMjIyO3N0cm9rZS13aWR0aDoxLjA7Ii8+PGVsbGlwc2UgY3g9IjkwIiBjeT0iMzA3LjUzMTMiIGZpbGw9IiMyMjIyMjIiIHJ4PSI2IiByeT0iNiIgc3R5bGU9InN0cm9rZTojMTExMTExO3N0cm9rZS13aWR0aDoxLjA7Ii8+PGxpbmUgc3R5bGU9InN0cm9rZTojMTgxODE4O3N0cm9rZS13aWR0aDoxLjA7IiB4MT0iOTAiIHgyPSI5MCIgeTE9IjMwIiB5Mj0iNTAiLz48cG9seWdvbiBmaWxsPSIjMTgxODE4IiBwb2ludHM9Ijg2LDQwLDkwLDUwLDk0LDQwLDkwLDQ0IiBzdHlsZT0ic3Ryb2tlOiMxODE4MTg7c3Ryb2tlLXdpZHRoOjEuMDsiLz48bGluZSBzdHlsZT0ic3Ryb2tlOiMxODE4MTg7c3Ryb2tlLXdpZHRoOjEuMDsiIHgxPSI5MCIgeDI9IjkwIiB5MT0iMTI2Ljg0MzgiIHkyPSIxNDYuODQzOCIvPjxwb2x5Z29uIGZpbGw9IiMxODE4MTgiIHBvaW50cz0iODYsMTM2Ljg0MzgsOTAsMTQ2Ljg0MzgsOTQsMTM2Ljg0MzgsOTAsMTQwLjg0MzgiIHN0eWxlPSJzdHJva2U6IzE4MTgxODtzdHJva2Utd2lkdGg6MS4wOyIvPjxsaW5lIHN0eWxlPSJzdHJva2U6IzE4MTgxODtzdHJva2Utd2lkdGg6MS4wOyIgeDE9IjEzMiIgeDI9IjE2MC41IiB5MT0iMjExLjY4NzUiIHkyPSIyMTEuNjg3NSIvPjxwb2x5Z29uIGZpbGw9IiMxODE4MTgiIHBvaW50cz0iMTU2LjUsMTczLjI2NTYsMTYwLjUsMTYzLjI2NTYsMTY0LjUsMTczLjI2NTYsMTYwLjUsMTY5LjI2NTYiIHN0eWxlPSJzdHJva2U6IzE4MTgxODtzdHJva2Utd2lkdGg6MS4wOyIvPjxsaW5lIHN0eWxlPSJzdHJva2U6IzE4MTgxODtzdHJva2Utd2lkdGg6MS4wOyIgeDE9IjE2MC41IiB4Mj0iMTYwLjUiIHkxPSIxMTQuODQzOCIgeTI9IjIxMS42ODc1Ii8+PGxpbmUgc3R5bGU9InN0cm9rZTojMTgxODE4O3N0cm9rZS13aWR0aDoxLjA7IiB4MT0iMTYwLjUiIHgyPSIxMDIiIHkxPSIxMTQuODQzOCIgeTI9IjExNC44NDM4Ii8+PHBvbHlnb24gZmlsbD0iIzE4MTgxOCIgcG9pbnRzPSIxMTIsMTEwLjg0MzgsMTAyLDExNC44NDM4LDExMiwxMTguODQzOCwxMDgsMTE0Ljg0MzgiIHN0eWxlPSJzdHJva2U6IzE4MTgxODtzdHJva2Utd2lkdGg6MS4wOyIvPjxsaW5lIHN0eWxlPSJzdHJva2U6IzE4MTgxODtzdHJva2Utd2lkdGg6MS4wOyIgeDE9IjkwIiB4Mj0iOTAiIHkxPSIxNzkuNjg3NSIgeTI9IjE5OS42ODc1Ii8+PHBvbHlnb24gZmlsbD0iIzE4MTgxOCIgcG9pbnRzPSI4NiwxODkuNjg3NSw5MCwxOTkuNjg3NSw5NCwxODkuNjg3NSw5MCwxOTMuNjg3NSIgc3R5bGU9InN0cm9rZTojMTgxODE4O3N0cm9rZS13aWR0aDoxLjA7Ii8+PGxpbmUgc3R5bGU9InN0cm9rZTojMTgxODE4O3N0cm9rZS13aWR0aDoxLjA7IiB4MT0iOTAiIHgyPSI5MCIgeTE9IjgyLjg0MzgiIHkyPSIxMDIuODQzOCIvPjxwb2x5Z29uIGZpbGw9IiMxODE4MTgiIHBvaW50cz0iODYsOTIuODQzOCw5MCwxMDIuODQzOCw5NCw5Mi44NDM4LDkwLDk2Ljg0MzgiIHN0eWxlPSJzdHJva2U6IzE4MTgxODtzdHJva2Utd2lkdGg6MS4wOyIvPjxsaW5lIHN0eWxlPSJzdHJva2U6IzE4MTgxODtzdHJva2Utd2lkdGg6MS4wOyIgeDE9IjkwIiB4Mj0iOTAiIHkxPSIyMjMuNjg3NSIgeTI9IjI0My42ODc1Ii8+PHBvbHlnb24gZmlsbD0iIzE4MTgxOCIgcG9pbnRzPSI4NiwyMzMuNjg3NSw5MCwyNDMuNjg3NSw5NCwyMzMuNjg3NSw5MCwyMzcuNjg3NSIgc3R5bGU9InN0cm9rZTojMTgxODE4O3N0cm9rZS13aWR0aDoxLjA7Ii8+PGxpbmUgc3R5bGU9InN0cm9rZTojMTgxODE4O3N0cm9rZS13aWR0aDoxLjA7IiB4MT0iOTAiIHgyPSI5MCIgeTE9IjI3Ni41MzEzIiB5Mj0iMjk2LjUzMTMiLz48cG9seWdvbiBmaWxsPSIjMTgxODE4IiBwb2ludHM9Ijg2LDI4Ni41MzEzLDkwLDI5Ni41MzEzLDk0LDI4Ni41MzEzLDkwLDI5MC41MzEzIiBzdHlsZT0ic3Ryb2tlOiMxODE4MTg7c3Ryb2tlLXdpZHRoOjEuMDsiLz48IS0tU1JDPVtET24xMmkwVzMwSmxsWUI3eldsc0RIODNOSDBaOWhSV3dzaUJkVGlveDlZZHhZNTRMNG9hV1pkSlg1T3ZHZlNjb0dDajhjamxJYmFBQ1JaZUItYS1LT0dzcmZobnRWUExDa19aN0kwUnA2QTZRLU5DakpxMF0tLT48L2c+PC9zdmc+;" vertex="1" parent="1">
            <mxGeometry x="760" y="680" width="186" height="329" as="geometry" />
          </mxCell>
        </UserObject>
        <UserObject label="" plantUmlData="{&quot;data&quot;:&quot;@startuml\nstart\n\n:Preparazione dei pattern lessicali:\\n◦ filtra ed estrai pattern da content2\\n◦ configura PhraseMatcher;\n\n:Esecuzione del matching:\\n◦ applica PhraseMatcher a doc_requisiti;\n\nif (Match trovati?) then (sì)\n  while (Itera sui match) is (sì)\n    :Determinazione della linea e del contesto:\\n◦ calcola la linea nel documento\\n◦ identifica il contesto della frase;\n    :Evidenziazione e classificazione:\\n◦ evidenzia l&#39;istanza specifica\\n◦ classifica usando lexical_memory;\n    :Aggregazione dei risultati:\\n◦ organizza i risultati in un dizionario;\n  endwhile (fine)\nelse (no)\n  :Nessun match trovato;\nendif\n\n:Restituzione dizionario dei risultati;\nstop\n@enduml\n&quot;,&quot;format&quot;:&quot;svg&quot;}" id="2Xxd8htiTgo1Ge0YMUIe-62">
          <mxCell style="shape=image;noLabel=1;verticalAlign=top;aspect=fixed;imageAspect=0;image=data:image/svg+xml,PD94bWwgdmVyc2lvbj0iMS4wIiBlbmNvZGluZz0idXMtYXNjaWkiIHN0YW5kYWxvbmU9Im5vIj8+PHN2ZyB4bWxucz0iaHR0cDovL3d3dy53My5vcmcvMjAwMC9zdmciIHhtbG5zOnhsaW5rPSJodHRwOi8vd3d3LnczLm9yZy8xOTk5L3hsaW5rIiBjb250ZW50U3R5bGVUeXBlPSJ0ZXh0L2NzcyIgaGVpZ2h0PSI2NDRweCIgcHJlc2VydmVBc3BlY3RSYXRpbz0ibm9uZSIgc3R5bGU9IndpZHRoOjUyN3B4O2hlaWdodDo2NDRweDtiYWNrZ3JvdW5kOiNGRkZGRkY7IiB2ZXJzaW9uPSIxLjEiIHZpZXdCb3g9IjAgMCA1MjcgNjQ0IiB3aWR0aD0iNTI3cHgiIHpvb21BbmRQYW49Im1hZ25pZnkiPjxkZWZzLz48Zz48ZWxsaXBzZSBjeD0iMzExLjUiIGN5PSIyMCIgZmlsbD0iIzIyMjIyMiIgcng9IjEwIiByeT0iMTAiIHN0eWxlPSJzdHJva2U6IzIyMjIyMjtzdHJva2Utd2lkdGg6MS4wOyIvPjxyZWN0IGZpbGw9IiNGMUYxRjEiIGhlaWdodD0iNTguNTMxMyIgcng9IjEyLjUiIHJ5PSIxMi41IiBzdHlsZT0ic3Ryb2tlOiMxODE4MTg7c3Ryb2tlLXdpZHRoOjAuNTsiIHdpZHRoPSIyNjciIHg9IjE3OCIgeT0iNTAiLz48dGV4dCBmaWxsPSIjMDAwMDAwIiBmb250LWZhbWlseT0ic2Fucy1zZXJpZiIgZm9udC1zaXplPSIxMiIgbGVuZ3RoQWRqdXN0PSJzcGFjaW5nIiB0ZXh0TGVuZ3RoPSIyMzEiIHg9IjE4OCIgeT0iNzEuMzQzOCI+UHJlcGFyYXppb25lIGRlaSBwYXR0ZXJuIGxlc3NpY2FsaTo8L3RleHQ+PHRleHQgZmlsbD0iIzAwMDAwMCIgZm9udC1mYW1pbHk9InNhbnMtc2VyaWYiIGZvbnQtc2l6ZT0iMTIiIGxlbmd0aEFkanVzdD0ic3BhY2luZyIgdGV4dExlbmd0aD0iMjQ3IiB4PSIxODgiIHk9Ijg0LjE4NzUiPiYjOTcwMjsgZmlsdHJhIGVkIGVzdHJhaSBwYXR0ZXJuIGRhIGNvbnRlbnQyPC90ZXh0Pjx0ZXh0IGZpbGw9IiMwMDAwMDAiIGZvbnQtZmFtaWx5PSJzYW5zLXNlcmlmIiBmb250LXNpemU9IjEyIiBsZW5ndGhBZGp1c3Q9InNwYWNpbmciIHRleHRMZW5ndGg9IjE2NyIgeD0iMTg4IiB5PSI5Ny4wMzEzIj4mIzk3MDI7IGNvbmZpZ3VyYSBQaHJhc2VNYXRjaGVyPC90ZXh0PjxyZWN0IGZpbGw9IiNGMUYxRjEiIGhlaWdodD0iNDUuNjg3NSIgcng9IjEyLjUiIHJ5PSIxMi41IiBzdHlsZT0ic3Ryb2tlOiMxODE4MTg7c3Ryb2tlLXdpZHRoOjAuNTsiIHdpZHRoPSIyNzciIHg9IjE3MyIgeT0iMTI4LjUzMTMiLz48dGV4dCBmaWxsPSIjMDAwMDAwIiBmb250LWZhbWlseT0ic2Fucy1zZXJpZiIgZm9udC1zaXplPSIxMiIgbGVuZ3RoQWRqdXN0PSJzcGFjaW5nIiB0ZXh0TGVuZ3RoPSIxNTYiIHg9IjE4MyIgeT0iMTQ5Ljg3NSI+RXNlY3V6aW9uZSBkZWwgbWF0Y2hpbmc6PC90ZXh0Pjx0ZXh0IGZpbGw9IiMwMDAwMDAiIGZvbnQtZmFtaWx5PSJzYW5zLXNlcmlmIiBmb250LXNpemU9IjEyIiBsZW5ndGhBZGp1c3Q9InNwYWNpbmciIHRleHRMZW5ndGg9IjI1NyIgeD0iMTgzIiB5PSIxNjIuNzE4OCI+JiM5NzAyOyBhcHBsaWNhIFBocmFzZU1hdGNoZXIgYSBkb2NfcmVxdWlzaXRpPC90ZXh0Pjxwb2x5Z29uIGZpbGw9IiNGMUYxRjEiIHBvaW50cz0iMjY5LjUsMTk0LjIxODgsMzUzLjUsMTk0LjIxODgsMzY1LjUsMjA2LjIxODgsMzUzLjUsMjE4LjIxODgsMjY5LjUsMjE4LjIxODgsMjU3LjUsMjA2LjIxODgsMjY5LjUsMTk0LjIxODgiIHN0eWxlPSJzdHJva2U6IzE4MTgxODtzdHJva2Utd2lkdGg6MC41OyIvPjx0ZXh0IGZpbGw9IiMwMDAwMDAiIGZvbnQtZmFtaWx5PSJzYW5zLXNlcmlmIiBmb250LXNpemU9IjExIiBsZW5ndGhBZGp1c3Q9InNwYWNpbmciIHRleHRMZW5ndGg9Ijg0IiB4PSIyNjkuNSIgeT0iMjEwLjczMDUiPk1hdGNoIHRyb3ZhdGk/PC90ZXh0Pjx0ZXh0IGZpbGw9IiMwMDAwMDAiIGZvbnQtZmFtaWx5PSJzYW5zLXNlcmlmIiBmb250LXNpemU9IjExIiBsZW5ndGhBZGp1c3Q9InNwYWNpbmciIHRleHRMZW5ndGg9IjEyIiB4PSIyNDUuNSIgeT0iMjA0Ljg0MzgiPnMmIzIzNjs8L3RleHQ+PHRleHQgZmlsbD0iIzAwMDAwMCIgZm9udC1mYW1pbHk9InNhbnMtc2VyaWYiIGZvbnQtc2l6ZT0iMTEiIGxlbmd0aEFkanVzdD0ic3BhY2luZyIgdGV4dExlbmd0aD0iMTIiIHg9IjM2NS41IiB5PSIyMDQuODQzOCI+bm88L3RleHQ+PHJlY3QgZmlsbD0iI0YxRjFGMSIgaGVpZ2h0PSI1OC41MzEzIiByeD0iMTIuNSIgcnk9IjEyLjUiIHN0eWxlPSJzdHJva2U6IzE4MTgxODtzdHJva2Utd2lkdGg6MC41OyIgd2lkdGg9IjI5NSIgeD0iMzYiIHk9IjI4NC4xMTcyIi8+PHRleHQgZmlsbD0iIzAwMDAwMCIgZm9udC1mYW1pbHk9InNhbnMtc2VyaWYiIGZvbnQtc2l6ZT0iMTIiIGxlbmd0aEFkanVzdD0ic3BhY2luZyIgdGV4dExlbmd0aD0iMjc1IiB4PSI0NiIgeT0iMzA1LjQ2MDkiPkRldGVybWluYXppb25lIGRlbGxhIGxpbmVhIGUgZGVsIGNvbnRlc3RvOjwvdGV4dD48dGV4dCBmaWxsPSIjMDAwMDAwIiBmb250LWZhbWlseT0ic2Fucy1zZXJpZiIgZm9udC1zaXplPSIxMiIgbGVuZ3RoQWRqdXN0PSJzcGFjaW5nIiB0ZXh0TGVuZ3RoPSIyMDciIHg9IjQ2IiB5PSIzMTguMzA0NyI+JiM5NzAyOyBjYWxjb2xhIGxhIGxpbmVhIG5lbCBkb2N1bWVudG88L3RleHQ+PHRleHQgZmlsbD0iIzAwMDAwMCIgZm9udC1mYW1pbHk9InNhbnMtc2VyaWYiIGZvbnQtc2l6ZT0iMTIiIGxlbmd0aEFkanVzdD0ic3BhY2luZyIgdGV4dExlbmd0aD0iMjMyIiB4PSI0NiIgeT0iMzMxLjE0ODQiPiYjOTcwMjsgaWRlbnRpZmljYSBpbCBjb250ZXN0byBkZWxsYSBmcmFzZTwvdGV4dD48cmVjdCBmaWxsPSIjRjFGMUYxIiBoZWlnaHQ9IjU4LjUzMTMiIHJ4PSIxMi41IiByeT0iMTIuNSIgc3R5bGU9InN0cm9rZTojMTgxODE4O3N0cm9rZS13aWR0aDowLjU7IiB3aWR0aD0iMjQxIiB4PSI2MyIgeT0iMzYyLjY0ODQiLz48dGV4dCBmaWxsPSIjMDAwMDAwIiBmb250LWZhbWlseT0ic2Fucy1zZXJpZiIgZm9udC1zaXplPSIxMiIgbGVuZ3RoQWRqdXN0PSJzcGFjaW5nIiB0ZXh0TGVuZ3RoPSIyMTQiIHg9IjczIiB5PSIzODMuOTkyMiI+RXZpZGVuemlhemlvbmUgZSBjbGFzc2lmaWNhemlvbmU6PC90ZXh0Pjx0ZXh0IGZpbGw9IiMwMDAwMDAiIGZvbnQtZmFtaWx5PSJzYW5zLXNlcmlmIiBmb250LXNpemU9IjEyIiBsZW5ndGhBZGp1c3Q9InNwYWNpbmciIHRleHRMZW5ndGg9IjIwMCIgeD0iNzMiIHk9IjM5Ni44MzU5Ij4mIzk3MDI7IGV2aWRlbnppYSBsJ2lzdGFuemEgc3BlY2lmaWNhPC90ZXh0Pjx0ZXh0IGZpbGw9IiMwMDAwMDAiIGZvbnQtZmFtaWx5PSJzYW5zLXNlcmlmIiBmb250LXNpemU9IjEyIiBsZW5ndGhBZGp1c3Q9InNwYWNpbmciIHRleHRMZW5ndGg9IjIyMSIgeD0iNzMiIHk9IjQwOS42Nzk3Ij4mIzk3MDI7IGNsYXNzaWZpY2EgdXNhbmRvIGxleGljYWxfbWVtb3J5PC90ZXh0PjxyZWN0IGZpbGw9IiNGMUYxRjEiIGhlaWdodD0iNDUuNjg3NSIgcng9IjEyLjUiIHJ5PSIxMi41IiBzdHlsZT0ic3Ryb2tlOiMxODE4MTg7c3Ryb2tlLXdpZHRoOjAuNTsiIHdpZHRoPSIyNzkiIHg9IjQ0IiB5PSI0NDEuMTc5NyIvPjx0ZXh0IGZpbGw9IiMwMDAwMDAiIGZvbnQtZmFtaWx5PSJzYW5zLXNlcmlmIiBmb250LXNpemU9IjEyIiBsZW5ndGhBZGp1c3Q9InNwYWNpbmciIHRleHRMZW5ndGg9IjE3OCIgeD0iNTQiIHk9IjQ2Mi41MjM0Ij5BZ2dyZWdhemlvbmUgZGVpIHJpc3VsdGF0aTo8L3RleHQ+PHRleHQgZmlsbD0iIzAwMDAwMCIgZm9udC1mYW1pbHk9InNhbnMtc2VyaWYiIGZvbnQtc2l6ZT0iMTIiIGxlbmd0aEFkanVzdD0ic3BhY2luZyIgdGV4dExlbmd0aD0iMjU5IiB4PSI1NCIgeT0iNDc1LjM2NzIiPiYjOTcwMjsgb3JnYW5penphIGkgcmlzdWx0YXRpIGluIHVuIGRpemlvbmFyaW88L3RleHQ+PHBvbHlnb24gZmlsbD0iI0YxRjFGMSIgcG9pbnRzPSIxMzguNSwyMjguMjE4OCwyMjguNSwyMjguMjE4OCwyNDAuNSwyNDAuMjE4OCwyMjguNSwyNTIuMjE4OCwxMzguNSwyNTIuMjE4OCwxMjYuNSwyNDAuMjE4OCwxMzguNSwyMjguMjE4OCIgc3R5bGU9InN0cm9rZTojMTgxODE4O3N0cm9rZS13aWR0aDowLjU7Ii8+PHRleHQgZmlsbD0iIzAwMDAwMCIgZm9udC1mYW1pbHk9InNhbnMtc2VyaWYiIGZvbnQtc2l6ZT0iMTEiIGxlbmd0aEFkanVzdD0ic3BhY2luZyIgdGV4dExlbmd0aD0iMTIiIHg9IjE4Ny41IiB5PSIyNjIuNjE3MiI+cyYjMjM2OzwvdGV4dD48dGV4dCBmaWxsPSIjMDAwMDAwIiBmb250LWZhbWlseT0ic2Fucy1zZXJpZiIgZm9udC1zaXplPSIxMSIgbGVuZ3RoQWRqdXN0PSJzcGFjaW5nIiB0ZXh0TGVuZ3RoPSI5MCIgeD0iMTM4LjUiIHk9IjI0NC43MzA1Ij5JdGVyYSBzdWkgbWF0Y2g8L3RleHQ+PHRleHQgZmlsbD0iIzAwMDAwMCIgZm9udC1mYW1pbHk9InNhbnMtc2VyaWYiIGZvbnQtc2l6ZT0iMTEiIGxlbmd0aEFkanVzdD0ic3BhY2luZyIgdGV4dExlbmd0aD0iMjQiIHg9IjEwMi41IiB5PSIyMzguODQzOCI+ZmluZTwvdGV4dD48cmVjdCBmaWxsPSIjRjFGMUYxIiBoZWlnaHQ9IjMyLjg0MzgiIHJ4PSIxMi41IiByeT0iMTIuNSIgc3R5bGU9InN0cm9rZTojMTgxODE4O3N0cm9rZS13aWR0aDowLjU7IiB3aWR0aD0iMTUzIiB4PSIzNjMiIHk9IjIyOC4yMTg4Ii8+PHRleHQgZmlsbD0iIzAwMDAwMCIgZm9udC1mYW1pbHk9InNhbnMtc2VyaWYiIGZvbnQtc2l6ZT0iMTIiIGxlbmd0aEFkanVzdD0ic3BhY2luZyIgdGV4dExlbmd0aD0iMTMzIiB4PSIzNzMiIHk9IjI0OS41NjI1Ij5OZXNzdW4gbWF0Y2ggdHJvdmF0bzwvdGV4dD48cG9seWdvbiBmaWxsPSIjRjFGMUYxIiBwb2ludHM9IjMxMS41LDUxNC44NjcyLDMyMy41LDUyNi44NjcyLDMxMS41LDUzOC44NjcyLDI5OS41LDUyNi44NjcyLDMxMS41LDUxNC44NjcyIiBzdHlsZT0ic3Ryb2tlOiMxODE4MTg7c3Ryb2tlLXdpZHRoOjAuNTsiLz48cmVjdCBmaWxsPSIjRjFGMUYxIiBoZWlnaHQ9IjMyLjg0MzgiIHJ4PSIxMi41IiByeT0iMTIuNSIgc3R5bGU9InN0cm9rZTojMTgxODE4O3N0cm9rZS13aWR0aDowLjU7IiB3aWR0aD0iMjYxIiB4PSIxODEiIHk9IjU1OC44NjcyIi8+PHRleHQgZmlsbD0iIzAwMDAwMCIgZm9udC1mYW1pbHk9InNhbnMtc2VyaWYiIGZvbnQtc2l6ZT0iMTIiIGxlbmd0aEFkanVzdD0ic3BhY2luZyIgdGV4dExlbmd0aD0iMjQxIiB4PSIxOTEiIHk9IjU4MC4yMTA5Ij5SZXN0aXR1emlvbmUgZGl6aW9uYXJpbyBkZWkgcmlzdWx0YXRpPC90ZXh0PjxlbGxpcHNlIGN4PSIzMTEuNSIgY3k9IjYyMi43MTA5IiBmaWxsPSJub25lIiByeD0iMTEiIHJ5PSIxMSIgc3R5bGU9InN0cm9rZTojMjIyMjIyO3N0cm9rZS13aWR0aDoxLjA7Ii8+PGVsbGlwc2UgY3g9IjMxMS41IiBjeT0iNjIyLjcxMDkiIGZpbGw9IiMyMjIyMjIiIHJ4PSI2IiByeT0iNiIgc3R5bGU9InN0cm9rZTojMTExMTExO3N0cm9rZS13aWR0aDoxLjA7Ii8+PGxpbmUgc3R5bGU9InN0cm9rZTojMTgxODE4O3N0cm9rZS13aWR0aDoxLjA7IiB4MT0iMzExLjUiIHgyPSIzMTEuNSIgeTE9IjMwIiB5Mj0iNTAiLz48cG9seWdvbiBmaWxsPSIjMTgxODE4IiBwb2ludHM9IjMwNy41LDQwLDMxMS41LDUwLDMxNS41LDQwLDMxMS41LDQ0IiBzdHlsZT0ic3Ryb2tlOiMxODE4MTg7c3Ryb2tlLXdpZHRoOjEuMDsiLz48bGluZSBzdHlsZT0ic3Ryb2tlOiMxODE4MTg7c3Ryb2tlLXdpZHRoOjEuMDsiIHgxPSIzMTEuNSIgeDI9IjMxMS41IiB5MT0iMTA4LjUzMTMiIHkyPSIxMjguNTMxMyIvPjxwb2x5Z29uIGZpbGw9IiMxODE4MTgiIHBvaW50cz0iMzA3LjUsMTE4LjUzMTMsMzExLjUsMTI4LjUzMTMsMzE1LjUsMTE4LjUzMTMsMzExLjUsMTIyLjUzMTMiIHN0eWxlPSJzdHJva2U6IzE4MTgxODtzdHJva2Utd2lkdGg6MS4wOyIvPjxsaW5lIHN0eWxlPSJzdHJva2U6IzE4MTgxODtzdHJva2Utd2lkdGg6MS4wOyIgeDE9IjE4My41IiB4Mj0iMTgzLjUiIHkxPSIzNDIuNjQ4NCIgeTI9IjM2Mi42NDg0Ii8+PHBvbHlnb24gZmlsbD0iIzE4MTgxOCIgcG9pbnRzPSIxNzkuNSwzNTIuNjQ4NCwxODMuNSwzNjIuNjQ4NCwxODcuNSwzNTIuNjQ4NCwxODMuNSwzNTYuNjQ4NCIgc3R5bGU9InN0cm9rZTojMTgxODE4O3N0cm9rZS13aWR0aDoxLjA7Ii8+PGxpbmUgc3R5bGU9InN0cm9rZTojMTgxODE4O3N0cm9rZS13aWR0aDoxLjA7IiB4MT0iMTgzLjUiIHgyPSIxODMuNSIgeTE9IjQyMS4xNzk3IiB5Mj0iNDQxLjE3OTciLz48cG9seWdvbiBmaWxsPSIjMTgxODE4IiBwb2ludHM9IjE3OS41LDQzMS4xNzk3LDE4My41LDQ0MS4xNzk3LDE4Ny41LDQzMS4xNzk3LDE4My41LDQzNS4xNzk3IiBzdHlsZT0ic3Ryb2tlOiMxODE4MTg7c3Ryb2tlLXdpZHRoOjEuMDsiLz48bGluZSBzdHlsZT0ic3Ryb2tlOiMxODE4MTg7c3Ryb2tlLXdpZHRoOjEuMDsiIHgxPSIxODMuNSIgeDI9IjE4My41IiB5MT0iMjUyLjIxODgiIHkyPSIyODQuMTE3MiIvPjxwb2x5Z29uIGZpbGw9IiMxODE4MTgiIHBvaW50cz0iMTc5LjUsMjc0LjExNzIsMTgzLjUsMjg0LjExNzIsMTg3LjUsMjc0LjExNzIsMTgzLjUsMjc4LjExNzIiIHN0eWxlPSJzdHJva2U6IzE4MTgxODtzdHJva2Utd2lkdGg6MS4wOyIvPjxsaW5lIHN0eWxlPSJzdHJva2U6IzE4MTgxODtzdHJva2Utd2lkdGg6MS4wOyIgeDE9IjE4My41IiB4Mj0iMTgzLjUiIHkxPSI0ODYuODY3MiIgeTI9IjQ5Ni44NjcyIi8+PGxpbmUgc3R5bGU9InN0cm9rZTojMTgxODE4O3N0cm9rZS13aWR0aDoxLjA7IiB4MT0iMTgzLjUiIHgyPSIzNDMiIHkxPSI0OTYuODY3MiIgeTI9IjQ5Ni44NjcyIi8+PHBvbHlnb24gZmlsbD0iIzE4MTgxOCIgcG9pbnRzPSIzMzksMzc3LjYwNTUsMzQzLDM2Ny42MDU1LDM0NywzNzcuNjA1NSwzNDMsMzczLjYwNTUiIHN0eWxlPSJzdHJva2U6IzE4MTgxODtzdHJva2Utd2lkdGg6MS4wOyIvPjxsaW5lIHN0eWxlPSJzdHJva2U6IzE4MTgxODtzdHJva2Utd2lkdGg6MS4wOyIgeDE9IjM0MyIgeDI9IjM0MyIgeTE9IjI0MC4yMTg4IiB5Mj0iNDk2Ljg2NzIiLz48bGluZSBzdHlsZT0ic3Ryb2tlOiMxODE4MTg7c3Ryb2tlLXdpZHRoOjEuMDsiIHgxPSIzNDMiIHgyPSIyNDAuNSIgeTE9IjI0MC4yMTg4IiB5Mj0iMjQwLjIxODgiLz48cG9seWdvbiBmaWxsPSIjMTgxODE4IiBwb2ludHM9IjI1MC41LDIzNi4yMTg4LDI0MC41LDI0MC4yMTg4LDI1MC41LDI0NC4yMTg4LDI0Ni41LDI0MC4yMTg4IiBzdHlsZT0ic3Ryb2tlOiMxODE4MTg7c3Ryb2tlLXdpZHRoOjEuMDsiLz48bGluZSBzdHlsZT0ic3Ryb2tlOiMxODE4MTg7c3Ryb2tlLXdpZHRoOjEuMDsiIHgxPSIxMjYuNSIgeDI9IjI0IiB5MT0iMjQwLjIxODgiIHkyPSIyNDAuMjE4OCIvPjxwb2x5Z29uIGZpbGw9IiMxODE4MTgiIHBvaW50cz0iMjAsMzcyLjYwNTUsMjQsMzgyLjYwNTUsMjgsMzcyLjYwNTUsMjQsMzc2LjYwNTUiIHN0eWxlPSJzdHJva2U6IzE4MTgxODtzdHJva2Utd2lkdGg6MS4wOyIvPjxsaW5lIHN0eWxlPSJzdHJva2U6IzE4MTgxODtzdHJva2Utd2lkdGg6MS4wOyIgeDE9IjI0IiB4Mj0iMjQiIHkxPSIyNDAuMjE4OCIgeTI9IjUyNi44NjcyIi8+PGxpbmUgc3R5bGU9InN0cm9rZTojMTgxODE4O3N0cm9rZS13aWR0aDoxLjA7IiB4MT0iMjQiIHgyPSIyOTkuNSIgeTE9IjUyNi44NjcyIiB5Mj0iNTI2Ljg2NzIiLz48cG9seWdvbiBmaWxsPSIjMTgxODE4IiBwb2ludHM9IjI4OS41LDUyMi44NjcyLDI5OS41LDUyNi44NjcyLDI4OS41LDUzMC44NjcyLDI5My41LDUyNi44NjcyIiBzdHlsZT0ic3Ryb2tlOiMxODE4MTg7c3Ryb2tlLXdpZHRoOjEuMDsiLz48bGluZSBzdHlsZT0ic3Ryb2tlOiMxODE4MTg7c3Ryb2tlLXdpZHRoOjEuMDsiIHgxPSIyNTcuNSIgeDI9IjE4My41IiB5MT0iMjA2LjIxODgiIHkyPSIyMDYuMjE4OCIvPjxsaW5lIHN0eWxlPSJzdHJva2U6IzE4MTgxODtzdHJva2Utd2lkdGg6MS4wOyIgeDE9IjE4My41IiB4Mj0iMTgzLjUiIHkxPSIyMDYuMjE4OCIgeTI9IjIyOC4yMTg4Ii8+PHBvbHlnb24gZmlsbD0iIzE4MTgxOCIgcG9pbnRzPSIxNzkuNSwyMTguMjE4OCwxODMuNSwyMjguMjE4OCwxODcuNSwyMTguMjE4OCwxODMuNSwyMjIuMjE4OCIgc3R5bGU9InN0cm9rZTojMTgxODE4O3N0cm9rZS13aWR0aDoxLjA7Ii8+PGxpbmUgc3R5bGU9InN0cm9rZTojMTgxODE4O3N0cm9rZS13aWR0aDoxLjA7IiB4MT0iMzY1LjUiIHgyPSI0MzkuNSIgeTE9IjIwNi4yMTg4IiB5Mj0iMjA2LjIxODgiLz48bGluZSBzdHlsZT0ic3Ryb2tlOiMxODE4MTg7c3Ryb2tlLXdpZHRoOjEuMDsiIHgxPSI0MzkuNSIgeDI9IjQzOS41IiB5MT0iMjA2LjIxODgiIHkyPSIyMjguMjE4OCIvPjxwb2x5Z29uIGZpbGw9IiMxODE4MTgiIHBvaW50cz0iNDM1LjUsMjE4LjIxODgsNDM5LjUsMjI4LjIxODgsNDQzLjUsMjE4LjIxODgsNDM5LjUsMjIyLjIxODgiIHN0eWxlPSJzdHJva2U6IzE4MTgxODtzdHJva2Utd2lkdGg6MS4wOyIvPjxsaW5lIHN0eWxlPSJzdHJva2U6IzE4MTgxODtzdHJva2Utd2lkdGg6MS4wOyIgeDE9IjQzOS41IiB4Mj0iNDM5LjUiIHkxPSIyNjEuMDYyNSIgeTI9IjUyNi44NjcyIi8+PGxpbmUgc3R5bGU9InN0cm9rZTojMTgxODE4O3N0cm9rZS13aWR0aDoxLjA7IiB4MT0iNDM5LjUiIHgyPSIzMjMuNSIgeTE9IjUyNi44NjcyIiB5Mj0iNTI2Ljg2NzIiLz48cG9seWdvbiBmaWxsPSIjMTgxODE4IiBwb2ludHM9IjMzMy41LDUyMi44NjcyLDMyMy41LDUyNi44NjcyLDMzMy41LDUzMC44NjcyLDMyOS41LDUyNi44NjcyIiBzdHlsZT0ic3Ryb2tlOiMxODE4MTg7c3Ryb2tlLXdpZHRoOjEuMDsiLz48bGluZSBzdHlsZT0ic3Ryb2tlOiMxODE4MTg7c3Ryb2tlLXdpZHRoOjEuMDsiIHgxPSIzMTEuNSIgeDI9IjMxMS41IiB5MT0iMTc0LjIxODgiIHkyPSIxOTQuMjE4OCIvPjxwb2x5Z29uIGZpbGw9IiMxODE4MTgiIHBvaW50cz0iMzA3LjUsMTg0LjIxODgsMzExLjUsMTk0LjIxODgsMzE1LjUsMTg0LjIxODgsMzExLjUsMTg4LjIxODgiIHN0eWxlPSJzdHJva2U6IzE4MTgxODtzdHJva2Utd2lkdGg6MS4wOyIvPjxsaW5lIHN0eWxlPSJzdHJva2U6IzE4MTgxODtzdHJva2Utd2lkdGg6MS4wOyIgeDE9IjMxMS41IiB4Mj0iMzExLjUiIHkxPSI1MzguODY3MiIgeTI9IjU1OC44NjcyIi8+PHBvbHlnb24gZmlsbD0iIzE4MTgxOCIgcG9pbnRzPSIzMDcuNSw1NDguODY3MiwzMTEuNSw1NTguODY3MiwzMTUuNSw1NDguODY3MiwzMTEuNSw1NTIuODY3MiIgc3R5bGU9InN0cm9rZTojMTgxODE4O3N0cm9rZS13aWR0aDoxLjA7Ii8+PGxpbmUgc3R5bGU9InN0cm9rZTojMTgxODE4O3N0cm9rZS13aWR0aDoxLjA7IiB4MT0iMzExLjUiIHgyPSIzMTEuNSIgeTE9IjU5MS43MTA5IiB5Mj0iNjExLjcxMDkiLz48cG9seWdvbiBmaWxsPSIjMTgxODE4IiBwb2ludHM9IjMwNy41LDYwMS43MTA5LDMxMS41LDYxMS43MTA5LDMxNS41LDYwMS43MTA5LDMxMS41LDYwNS43MTA5IiBzdHlsZT0ic3Ryb2tlOiMxODE4MTg7c3Ryb2tlLXdpZHRoOjEuMDsiLz48IS0tU1JDPVtMTDhuSmlIMDNFcHAyZFRTTWlneDBZNW4xR05lSDhycWlYOGRpUkpQM1JsVTBfOEhWYTM1Ql9XOUJ5NlJSNzl0dElRVXlOWjYzZTlVWWM5eHkzSVdudjZUOVFZOU9LMEh5WE9DWFMwTDZqdy1zaC1sUnNaT1k0VVc2WVpldW1vaTRJZmRYUXBTcGFaelFoWUQyWnZxN1dDemVMR1QtUHNneEdETFNUNG9xQVNBc3BQQnUzME9iUm9jMEtCamdnRWRqeVkxWFJLRER4MlBnWTNVZEwzdWhXSmZvQzhjX0Z3SzFTMXhudVBXeXdacDhPSjhpcjA5NzVPOG1GUTFqRHdwTlNxUldzM09haGdTbmZqaTFONXZGMHNaU1djb2VBbllUQlJPZ3RTdE94Wk1EcFY5MVB5UnZEdkRpaE1SblZVZDExcXZZbkRLMVpObW45cC1QNHJRTzYxa0UwWlFLR3FETDR0MEZEUEFYMVpHcmF2Tnp2NHNULW9mVF91cDJ6d3RoUVZzT2o2VUdwSVl3TUtmdnJrcUZBaDBIR3RPR2pHVFMtQVhQdlV3YVFycG1ldGNLMVBhV2h3akl4YmtkX0xrYkQ1Vng0VDlJazU2My0xNXVzMVBKYzNqVVp0R2hqM0NYZHkwXS0tPjwvZz48L3N2Zz4=;" vertex="1" parent="1">
            <mxGeometry x="1080" y="680" width="527" height="644" as="geometry" />
          </mxCell>
        </UserObject>
      </root>
    </mxGraphModel>
  </diagram>
</mxfile>
